<svg xmlns="http://www.w3.org/2000/svg" xml:space="preserve" fill-rule="evenodd" stroke-linejoin="round" stroke-miterlimit="2" clip-rule="evenodd" viewBox="0 0 1280 1024" color="#000" fill="currentColor" stroke="curentColor">
  <path d="M432.32 796.18h35.638l46.71 68.508V796.18h35.984v123.868h-35.984l-46.364-67.989v67.989H432.32V796.18Zm139.093 0h50.343l19.376 75.428 19.376-75.428h50.17v123.868h-31.313V825.59l-24.22 94.458h-28.199l-24.22-94.458v94.458h-31.313V796.18Zm159.826 123.868V796.18h63.837c11.764 0 20.76 1.038 27.161 3.114 6.228 1.903 11.245 5.709 15.051 11.245 3.806 5.536 5.709 12.11 5.709 20.068 0 6.92-1.384 12.802-4.325 17.819-2.941 5.017-6.92 8.996-12.11 12.11-3.287 1.903-7.785 3.633-13.494 4.844 4.671 1.557 7.958 3.114 10.034 4.498 1.384 1.038 3.46 3.287 6.055 6.574 2.768 3.287 4.498 5.882 5.363 7.612l18.511 35.984h-43.25l-20.414-37.887c-2.595-4.844-4.844-7.958-6.92-9.515-2.768-1.903-5.882-2.941-9.342-2.941h-3.46v50.343h-38.406Zm38.406-73.698h16.262c1.73 0 5.017-.519 10.034-1.73 2.595-.346 4.671-1.73 6.228-3.806 1.557-2.076 2.422-4.498 2.422-7.266 0-3.979-1.211-6.92-3.806-9.169-2.595-2.076-7.266-3.114-14.186-3.114h-16.954v25.085Z"/>
  <path d="M806.661 566.902H732.05l144.436 256.292s49.135 114.184-32.29 134.121H427.735c-81.425-19.937-32.289-134.121-32.289-134.121l144.408-256.292h-74.608L338.817 791.286a65.162 65.162 0 0 0-3.077 6.215c-.927 2.15-24.091 57.796-19.27 109.972 4.669 50.534 29.424 96.724 95.806 112.977a65.004 65.004 0 0 0 15.459 1.866h416.461c5.21 0 10.4-.627 15.459-1.866 66.382-16.253 91.137-62.443 95.807-112.977 4.241-45.899-13.892-96.148-18.318-107.571l-.319-.88-.304-.691-.329-.83-.021.032a57.49 57.49 0 0 0-3.059-6.252L806.661 566.902Z"/>
  <path d="M813.442 484.2c-7.752-3.749-12.868-27.749-12.868-36.2H469.122c0 8.451-5.116 32.451-12.868 36.2-12.747 6.165-21.484 19.163-21.109 34.016.509 20.174 18.049 35.983 38.7 35.983h322.006c20.652 0 38.192-15.809 38.7-35.983.375-14.853-8.361-27.851-21.109-34.016"/>
  <path d="M370.5 446.041c-37.967 34.251-78.21 82.741-93.157 141.769l-.001.003c-3.329 13.156 4.669 26.556 18.002 29.85l.003.001a24.81 24.81 0 0 0 5.952.724c11.082 0 21.126-7.464 23.942-18.568l.001-.004c14.105-55.702 57.72-100.667 93.522-129.956 20.849-1.25 38.362-14.499 45.761-32.806.929-.574 1.788-1.099 2.57-1.572h331.684c13.691 0 24.696-11.057 24.696-24.573 0-13.518-11.005-24.573-24.696-24.573H457.862v.044c-9.609-12.807-24.981-21.133-42.361-21.133-21.699 0-40.291 12.959-48.435 31.431a568.582 568.582 0 0 0-8.193 1.566l-.009.002c-44.416 8.859-77.759 21.495-99.995 37.152-16.86 11.872-27.774 25.649-33.203 40.834-4.58 12.809 2.129 26.904 15.1 31.425a24.713 24.713 0 0 0 8.168 1.386c10.186 0 19.689-6.318 23.269-16.346 3.432-9.6 13.059-16.865 25.216-23.372 19.824-10.612 46.444-18.057 73.081-23.284Z"/>
  <path d="M813.441 337.7c-7.752 3.749-12.868 27.751-12.868 36.203H469.121c0-8.452-5.116-32.454-12.868-36.203-12.747-6.165-21.484-19.164-21.109-34.016.509-20.175 18.049-35.985 38.7-35.985H795.85c20.652 0 38.192 15.81 38.7 35.985.375 14.852-8.361 27.851-21.109 34.016"/>
  <path d="M465.529 255h73.874L450.876 91.09c-3.799-11.462 1.713-24.96 10.191-24.96h349.847c8.479 0 13.99 13.498 10.193 24.96L732.506 255h73.889l71.893-133.001a65.085 65.085 0 0 0 4.52-10.466c10.595-31.977-.174-67.35-17.268-86.042C850.679 9.239 831.478 1.13 810.914 1.13H461.067c-20.563 0-39.764 8.109-54.625 24.361-17.095 18.692-27.863 54.067-17.267 86.046a64.955 64.955 0 0 0 4.51 10.442L465.529 255Z"/>
</svg>
