<?xml version="1.0" encoding="UTF-8" standalone="no"?>
<!DOCTYPE svg PUBLIC "-//W3C//DTD SVG 1.1//EN" "http://www.w3.org/Graphics/SVG/1.1/DTD/svg11.dtd">
<svg width="100%" height="100%" viewBox="0 0 1000 600" version="1.1" xmlns="http://www.w3.org/2000/svg" xmlns:xlink="http://www.w3.org/1999/xlink" xml:space="preserve" xmlns:serif="http://www.serif.com/" style="fill-rule:evenodd;clip-rule:evenodd;stroke-linecap:square;">
    <g transform="matrix(1.02041,0,0,0.882353,-20.4082,-17.6471)">
        <path d="M1000,96.836C1000,54.429 970.229,20 933.559,20L86.441,20C49.771,20 20,54.429 20,96.836L20,623.164C20,665.571 49.771,700 86.441,700L933.559,700C970.229,700 1000,665.571 1000,623.164L1000,96.836Z" style="fill:white;"/>
    </g>
    <g transform="matrix(0.846154,0,0,0.846154,76.9231,0.512721)">
        <g transform="matrix(0.750208,0,0,0.750208,501.29,-3.35693)">
            <path d="M220.93,127.14L151.77,92.23L75.87,130.11L146.9,165.78L220.93,127.14Z" style="fill:rgb(77,171,207);fill-rule:nonzero;"/>
            <path d="M252.63,143.14L325.14,179.74L249.91,217.52L178.77,181.79L252.63,143.14Z" style="fill:rgb(77,171,207);fill-rule:nonzero;"/>
            <path d="M349.47,92.76L423.96,130.11L357.34,163.57L284.68,126.92L349.47,92.76Z" style="fill:rgb(77,171,207);fill-rule:nonzero;"/>
            <path d="M317.41,76.67L250.35,43.05L184.01,76.15L253.11,111L317.41,76.67Z" style="fill:rgb(77,171,207);fill-rule:nonzero;"/>
            <path d="M264.98,365.44L264.98,456.95L346.22,416.41L346.13,324.86L264.98,365.44Z" style="fill:rgb(77,171,207);fill-rule:nonzero;"/>
            <path d="M346.1,292.91L346.01,202.32L264.98,242.6L264.98,333.22L346.1,292.91Z" style="fill:rgb(77,171,207);fill-rule:nonzero;"/>
            <path d="M443.63,275.93L443.63,367.8L374.34,402.38L374.29,310.93L443.63,275.93Z" style="fill:rgb(77,171,207);fill-rule:nonzero;"/>
            <path d="M443.63,243.81L443.63,153.79L374.21,188.3L374.27,279.07L443.63,243.81Z" style="fill:rgb(77,171,207);fill-rule:nonzero;"/>
            <path d="M236.3,242.6L181.58,215.09L181.58,334C181.58,334 114.66,191.61 108.46,178.82C107.66,177.17 104.37,175.36 103.53,174.92C91.53,168.62 56.37,150.81 56.37,150.81L56.37,360.89L105.01,386.89L105.01,277.08C105.01,277.08 171.22,404.31 171.89,405.7C172.56,407.09 179.21,420.5 186.31,425.21C195.77,431.47 236.31,455.85 236.31,455.85L236.3,242.6Z" style="fill:rgb(77,119,207);fill-rule:nonzero;"/>
        </g>
        <g transform="matrix(2.61355,0,0,2.61355,-28.6027,-67.2139)">
            <g id="path1948" transform="matrix(1,0,0,1,74.4193,40)">
                <path d="M54.919,0.001C50.335,0.022 45.958,0.413 42.106,1.095C30.76,3.099 28.7,7.295 28.7,15.032L28.7,25.251L55.513,25.251L55.513,28.657L18.638,28.657C10.845,28.657 4.022,33.341 1.888,42.251C-0.574,52.464 -0.683,58.837 1.888,69.501C3.793,77.439 8.345,83.095 16.138,83.095L25.356,83.095L25.356,70.845C25.356,61.995 33.013,54.188 42.106,54.188L68.888,54.188C76.342,54.188 82.294,48.05 82.294,40.563L82.294,15.032C82.294,7.766 76.164,2.307 68.888,1.095C64.282,0.328 59.502,-0.02 54.919,0.001ZM40.419,8.22C43.188,8.22 45.45,10.518 45.45,13.345C45.45,16.161 43.188,18.438 40.419,18.438C37.639,18.438 35.388,16.161 35.388,13.345C35.388,10.518 37.639,8.22 40.419,8.22Z" style="fill:rgb(48,105,152);fill-rule:nonzero;"/>
            </g>
            <g id="path1950" transform="matrix(1,0,0,1,74.4193,40)">
                <path d="M85.638,28.657L85.638,40.563C85.638,49.794 77.812,57.563 68.888,57.563L42.106,57.563C34.77,57.563 28.7,63.842 28.7,71.188L28.7,96.72C28.7,103.986 35.019,108.26 42.106,110.345C50.594,112.84 58.733,113.291 68.888,110.345C75.638,108.39 82.294,104.457 82.294,96.72L82.294,86.501L55.513,86.501L55.513,83.095L95.7,83.095C103.493,83.095 106.396,77.659 109.106,69.501C111.906,61.102 111.787,53.025 109.106,42.251C107.181,34.493 103.502,28.657 95.7,28.657L85.638,28.657ZM70.575,93.313C73.355,93.313 75.606,95.591 75.606,98.407C75.606,101.234 73.355,103.532 70.575,103.532C67.805,103.532 65.544,101.234 65.544,98.407C65.544,95.591 67.805,93.313 70.575,93.313Z" style="fill:rgb(255,212,59);fill-rule:nonzero;"/>
            </g>
        </g>
        <g transform="matrix(0.547351,0,0,0.547351,157.9,387.432)">
            <g id="tongue" transform="matrix(1,0,0,1,-12.8238,0.120119)">
                <path d="M513.567,184.931L526.458,178.935L535.169,155.126L544.31,158.329L536.458,179.618L558.216,187.118L554.935,196.034L530.638,187.548L517.24,193.71" style="fill:rgb(0,84,166);"/>
            </g>
            <g id="switch8080">
            </g>
            <g id="circle" transform="matrix(2.37633,0,0,2.37633,-670.532,-13.9769)">
                <path d="M301.065,174.142L334.734,149.014C339.136,145.717 344.815,144.089 350.683,144.911C356.56,145.75 361.532,148.866 364.82,153.229L380.946,174.631C384.854,179.82 390.756,183.525 397.746,184.494C411.702,186.451 424.655,176.785 426.677,162.911C427.877,154.774 425.049,147.015 419.707,141.584C415.236,137.925 409.734,135.897 407.345,135.032C404.762,134.099 400.396,133.02 398.844,132.652C384.339,129.328 367.596,125.577 358.987,115.731C350.377,105.885 348.809,96.247 350.478,84.851C353.782,62.241 374.889,46.493 397.631,49.678C408.99,51.264 418.606,57.297 424.984,65.754L438.414,83.578L443.132,89.845C447.258,94.891 452.893,95.772 458.88,93.741L464.074,91.542C464.584,91.332 465.011,90.938 465.225,90.379C465.406,89.927 465.406,89.434 465.274,88.994L464.616,86.878C464.435,86.278 464.452,85.616 464.698,84.983C465.109,83.898 466.062,83.187 467.131,83.035L485.509,81.346C488.632,80.931 489.536,82.735 489.536,82.735L492.84,90.26C492.84,90.26 493.547,92.146 491.147,94.201C491.147,94.201 482.274,102.693 477.899,106.863C477.256,107.476 475.879,107.639 474.891,107.401C473.903,107.164 473.348,106.293 472.823,105.349C472.298,104.405 471.839,103.597 470.903,103.3C469.967,103.002 469.389,103.449 468.912,103.671L463.169,106.385C451.366,112.254 440.517,108.555 430.868,96.128L413.986,73.949C409.729,68.274 403.272,64.242 395.657,63.165C380.411,61.036 367.06,71.793 363.742,86.743C361.628,96.268 367.041,107.255 373.927,110.981C379.96,114.245 387.513,116.359 399.923,119.093C412.334,121.826 426.801,127.648 434.122,137.663C439.333,145.388 441.766,154.998 440.32,164.95C437.197,186.336 417.241,201.229 395.74,198.221C385.519,196.784 376.79,191.564 370.782,184.193L353.724,161.268C352.507,159.65 350.654,158.506 348.476,158.194C346.429,157.914 344.456,158.408 342.866,159.493L308.16,185.514C328.088,213.4 360.328,229.992 394.608,230C452.917,230 500.898,182.02 500.898,123.711C500.898,123.711 500.898,123.711 500.898,123.711C500.898,65.402 452.918,17.421 394.609,17.421L394.608,17.421C336.299,17.421 288.319,65.402 288.319,123.711C288.319,123.711 288.319,123.711 288.319,123.711C288.325,141.316 292.705,158.648 301.065,174.142Z" style="fill:rgb(0,84,166);fill-rule:nonzero;"/>
            </g>
        </g>
        <g id="axes_1" transform="matrix(3.66613,0,0,3.66613,543.663,388.498)">
            <g id="patch_2">
                <path d="M76.824,39.6C76.824,34.712 75.861,29.871 73.99,25.355C72.12,20.839 69.378,16.735 65.921,13.279C62.465,9.822 58.361,7.08 53.845,5.21C49.329,3.339 44.488,2.376 39.6,2.376C34.712,2.376 29.871,3.339 25.355,5.21C20.839,7.08 16.735,9.822 13.279,13.279C9.822,16.735 7.08,20.839 5.21,25.355C3.339,29.871 2.376,34.712 2.376,39.6C2.376,44.488 3.339,49.329 5.21,53.845C7.08,58.361 9.822,62.465 13.279,65.921C16.735,69.378 20.839,72.12 25.355,73.99C29.871,75.861 34.712,76.824 39.6,76.824C44.488,76.824 49.329,75.861 53.845,73.99C58.361,72.12 62.465,69.378 65.921,65.921C69.378,62.465 72.12,58.361 73.99,53.845C75.861,49.329 76.824,44.488 76.824,39.6M39.6,39.6" style="fill:white;fill-rule:nonzero;"/>
            </g>
            <g id="patch_3">
                <path d="M39.6,39.6L79.223,39.6C79.223,44.803 78.198,49.956 76.207,54.763C74.216,59.57 71.297,63.938 67.618,67.618C63.938,71.297 59.57,74.216 54.763,76.207C49.956,78.198 44.803,79.223 39.6,79.223C34.397,79.223 29.244,78.198 24.437,76.207C19.63,74.216 15.262,71.297 11.582,67.618C7.903,63.938 4.984,59.57 2.993,54.763C1.002,49.956 -0.023,44.803 -0.023,39.6C-0.023,34.397 1.002,29.244 2.993,24.437C4.984,19.63 7.903,15.262 11.582,11.582C15.262,7.903 19.63,4.984 24.437,2.993C29.244,1.002 34.397,-0.023 39.6,-0.023C44.803,-0.023 49.956,1.002 54.763,2.993C59.57,4.984 63.938,7.903 67.618,11.582C71.297,15.262 74.216,19.63 76.207,24.437C78.198,29.244 79.223,34.397 79.223,39.6L39.6,39.6Z" style="fill:white;fill-rule:nonzero;"/>
            </g>
            <g id="matplotlib.axis_1">
                <g id="xtick_1">
                    <g id="line2d_1">
                        <clipPath id="_clip1">
                            <path d="M76.824,39.6C76.824,34.712 75.861,29.871 73.99,25.355C72.12,20.839 69.378,16.735 65.921,13.279C62.465,9.822 58.361,7.08 53.845,5.21C49.329,3.339 44.488,2.376 39.6,2.376C34.712,2.376 29.871,3.339 25.355,5.21C20.839,7.08 16.735,9.822 13.279,13.279C9.822,16.735 7.08,20.839 5.21,25.355C3.339,29.871 2.376,34.712 2.376,39.6C2.376,44.488 3.339,49.329 5.21,53.845C7.08,58.361 9.822,62.465 13.279,65.921C16.735,69.378 20.839,72.12 25.355,73.99C29.871,75.861 34.712,76.824 39.6,76.824C44.488,76.824 49.329,75.861 53.845,73.99C58.361,72.12 62.465,69.378 65.921,65.921C69.378,62.465 72.12,58.361 73.99,53.845C75.861,49.329 76.824,44.488 76.824,39.6M39.6,39.6"/>
                        </clipPath>
                        <g clip-path="url(#_clip1)">
                            <path d="M39.6,39.6L76.824,39.6" style="fill:none;fill-rule:nonzero;stroke:rgb(230,230,230);stroke-width:0.5px;"/>
                        </g>
                    </g>
                </g>
                <g id="xtick_2">
                    <g id="line2d_2">
                        <clipPath id="_clip2">
                            <path d="M76.824,39.6C76.824,34.712 75.861,29.871 73.99,25.355C72.12,20.839 69.378,16.735 65.921,13.279C62.465,9.822 58.361,7.08 53.845,5.21C49.329,3.339 44.488,2.376 39.6,2.376C34.712,2.376 29.871,3.339 25.355,5.21C20.839,7.08 16.735,9.822 13.279,13.279C9.822,16.735 7.08,20.839 5.21,25.355C3.339,29.871 2.376,34.712 2.376,39.6C2.376,44.488 3.339,49.329 5.21,53.845C7.08,58.361 9.822,62.465 13.279,65.921C16.735,69.378 20.839,72.12 25.355,73.99C29.871,75.861 34.712,76.824 39.6,76.824C44.488,76.824 49.329,75.861 53.845,73.99C58.361,72.12 62.465,69.378 65.921,65.921C69.378,62.465 72.12,58.361 73.99,53.845C75.861,49.329 76.824,44.488 76.824,39.6M39.6,39.6"/>
                        </clipPath>
                        <g clip-path="url(#_clip2)">
                            <path d="M39.6,39.6L65.921,13.279" style="fill:none;fill-rule:nonzero;stroke:rgb(230,230,230);stroke-width:0.5px;"/>
                        </g>
                    </g>
                </g>
                <g id="xtick_3">
                    <g id="line2d_3">
                        <clipPath id="_clip3">
                            <path d="M76.824,39.6C76.824,34.712 75.861,29.871 73.99,25.355C72.12,20.839 69.378,16.735 65.921,13.279C62.465,9.822 58.361,7.08 53.845,5.21C49.329,3.339 44.488,2.376 39.6,2.376C34.712,2.376 29.871,3.339 25.355,5.21C20.839,7.08 16.735,9.822 13.279,13.279C9.822,16.735 7.08,20.839 5.21,25.355C3.339,29.871 2.376,34.712 2.376,39.6C2.376,44.488 3.339,49.329 5.21,53.845C7.08,58.361 9.822,62.465 13.279,65.921C16.735,69.378 20.839,72.12 25.355,73.99C29.871,75.861 34.712,76.824 39.6,76.824C44.488,76.824 49.329,75.861 53.845,73.99C58.361,72.12 62.465,69.378 65.921,65.921C69.378,62.465 72.12,58.361 73.99,53.845C75.861,49.329 76.824,44.488 76.824,39.6M39.6,39.6"/>
                        </clipPath>
                        <g clip-path="url(#_clip3)">
                            <path d="M39.6,39.6L39.6,2.376" style="fill:none;fill-rule:nonzero;stroke:rgb(230,230,230);stroke-width:0.5px;"/>
                        </g>
                    </g>
                </g>
                <g id="xtick_4">
                    <g id="line2d_4">
                        <clipPath id="_clip4">
                            <path d="M76.824,39.6C76.824,34.712 75.861,29.871 73.99,25.355C72.12,20.839 69.378,16.735 65.921,13.279C62.465,9.822 58.361,7.08 53.845,5.21C49.329,3.339 44.488,2.376 39.6,2.376C34.712,2.376 29.871,3.339 25.355,5.21C20.839,7.08 16.735,9.822 13.279,13.279C9.822,16.735 7.08,20.839 5.21,25.355C3.339,29.871 2.376,34.712 2.376,39.6C2.376,44.488 3.339,49.329 5.21,53.845C7.08,58.361 9.822,62.465 13.279,65.921C16.735,69.378 20.839,72.12 25.355,73.99C29.871,75.861 34.712,76.824 39.6,76.824C44.488,76.824 49.329,75.861 53.845,73.99C58.361,72.12 62.465,69.378 65.921,65.921C69.378,62.465 72.12,58.361 73.99,53.845C75.861,49.329 76.824,44.488 76.824,39.6M39.6,39.6"/>
                        </clipPath>
                        <g clip-path="url(#_clip4)">
                            <path d="M39.6,39.6L13.279,13.279" style="fill:none;fill-rule:nonzero;stroke:rgb(230,230,230);stroke-width:0.5px;"/>
                        </g>
                    </g>
                </g>
                <g id="xtick_5">
                    <g id="line2d_5">
                        <clipPath id="_clip5">
                            <path d="M76.824,39.6C76.824,34.712 75.861,29.871 73.99,25.355C72.12,20.839 69.378,16.735 65.921,13.279C62.465,9.822 58.361,7.08 53.845,5.21C49.329,3.339 44.488,2.376 39.6,2.376C34.712,2.376 29.871,3.339 25.355,5.21C20.839,7.08 16.735,9.822 13.279,13.279C9.822,16.735 7.08,20.839 5.21,25.355C3.339,29.871 2.376,34.712 2.376,39.6C2.376,44.488 3.339,49.329 5.21,53.845C7.08,58.361 9.822,62.465 13.279,65.921C16.735,69.378 20.839,72.12 25.355,73.99C29.871,75.861 34.712,76.824 39.6,76.824C44.488,76.824 49.329,75.861 53.845,73.99C58.361,72.12 62.465,69.378 65.921,65.921C69.378,62.465 72.12,58.361 73.99,53.845C75.861,49.329 76.824,44.488 76.824,39.6M39.6,39.6"/>
                        </clipPath>
                        <g clip-path="url(#_clip5)">
                            <path d="M39.6,39.6L2.376,39.6" style="fill:none;fill-rule:nonzero;stroke:rgb(230,230,230);stroke-width:0.5px;"/>
                        </g>
                    </g>
                </g>
                <g id="xtick_6">
                    <g id="line2d_6">
                        <clipPath id="_clip6">
                            <path d="M76.824,39.6C76.824,34.712 75.861,29.871 73.99,25.355C72.12,20.839 69.378,16.735 65.921,13.279C62.465,9.822 58.361,7.08 53.845,5.21C49.329,3.339 44.488,2.376 39.6,2.376C34.712,2.376 29.871,3.339 25.355,5.21C20.839,7.08 16.735,9.822 13.279,13.279C9.822,16.735 7.08,20.839 5.21,25.355C3.339,29.871 2.376,34.712 2.376,39.6C2.376,44.488 3.339,49.329 5.21,53.845C7.08,58.361 9.822,62.465 13.279,65.921C16.735,69.378 20.839,72.12 25.355,73.99C29.871,75.861 34.712,76.824 39.6,76.824C44.488,76.824 49.329,75.861 53.845,73.99C58.361,72.12 62.465,69.378 65.921,65.921C69.378,62.465 72.12,58.361 73.99,53.845C75.861,49.329 76.824,44.488 76.824,39.6M39.6,39.6"/>
                        </clipPath>
                        <g clip-path="url(#_clip6)">
                            <path d="M39.6,39.6L13.279,65.921" style="fill:none;fill-rule:nonzero;stroke:rgb(230,230,230);stroke-width:0.5px;"/>
                        </g>
                    </g>
                </g>
                <g id="xtick_7">
                    <g id="line2d_7">
                        <clipPath id="_clip7">
                            <path d="M76.824,39.6C76.824,34.712 75.861,29.871 73.99,25.355C72.12,20.839 69.378,16.735 65.921,13.279C62.465,9.822 58.361,7.08 53.845,5.21C49.329,3.339 44.488,2.376 39.6,2.376C34.712,2.376 29.871,3.339 25.355,5.21C20.839,7.08 16.735,9.822 13.279,13.279C9.822,16.735 7.08,20.839 5.21,25.355C3.339,29.871 2.376,34.712 2.376,39.6C2.376,44.488 3.339,49.329 5.21,53.845C7.08,58.361 9.822,62.465 13.279,65.921C16.735,69.378 20.839,72.12 25.355,73.99C29.871,75.861 34.712,76.824 39.6,76.824C44.488,76.824 49.329,75.861 53.845,73.99C58.361,72.12 62.465,69.378 65.921,65.921C69.378,62.465 72.12,58.361 73.99,53.845C75.861,49.329 76.824,44.488 76.824,39.6M39.6,39.6"/>
                        </clipPath>
                        <g clip-path="url(#_clip7)">
                            <path d="M39.6,39.6L39.6,76.824" style="fill:none;fill-rule:nonzero;stroke:rgb(230,230,230);stroke-width:0.5px;"/>
                        </g>
                    </g>
                </g>
                <g id="xtick_8">
                    <g id="line2d_8">
                        <clipPath id="_clip8">
                            <path d="M76.824,39.6C76.824,34.712 75.861,29.871 73.99,25.355C72.12,20.839 69.378,16.735 65.921,13.279C62.465,9.822 58.361,7.08 53.845,5.21C49.329,3.339 44.488,2.376 39.6,2.376C34.712,2.376 29.871,3.339 25.355,5.21C20.839,7.08 16.735,9.822 13.279,13.279C9.822,16.735 7.08,20.839 5.21,25.355C3.339,29.871 2.376,34.712 2.376,39.6C2.376,44.488 3.339,49.329 5.21,53.845C7.08,58.361 9.822,62.465 13.279,65.921C16.735,69.378 20.839,72.12 25.355,73.99C29.871,75.861 34.712,76.824 39.6,76.824C44.488,76.824 49.329,75.861 53.845,73.99C58.361,72.12 62.465,69.378 65.921,65.921C69.378,62.465 72.12,58.361 73.99,53.845C75.861,49.329 76.824,44.488 76.824,39.6M39.6,39.6"/>
                        </clipPath>
                        <g clip-path="url(#_clip8)">
                            <path d="M39.6,39.6L65.921,65.921" style="fill:none;fill-rule:nonzero;stroke:rgb(230,230,230);stroke-width:0.5px;"/>
                        </g>
                    </g>
                </g>
            </g>
            <g id="matplotlib.axis_2">
                <g id="ytick_1">
                    <g id="line2d_9">
                        <clipPath id="_clip9">
                            <path d="M76.824,39.6C76.824,34.712 75.861,29.871 73.99,25.355C72.12,20.839 69.378,16.735 65.921,13.279C62.465,9.822 58.361,7.08 53.845,5.21C49.329,3.339 44.488,2.376 39.6,2.376C34.712,2.376 29.871,3.339 25.355,5.21C20.839,7.08 16.735,9.822 13.279,13.279C9.822,16.735 7.08,20.839 5.21,25.355C3.339,29.871 2.376,34.712 2.376,39.6C2.376,44.488 3.339,49.329 5.21,53.845C7.08,58.361 9.822,62.465 13.279,65.921C16.735,69.378 20.839,72.12 25.355,73.99C29.871,75.861 34.712,76.824 39.6,76.824C44.488,76.824 49.329,75.861 53.845,73.99C58.361,72.12 62.465,69.378 65.921,65.921C69.378,62.465 72.12,58.361 73.99,53.845C75.861,49.329 76.824,44.488 76.824,39.6M39.6,39.6"/>
                        </clipPath>
                        <g clip-path="url(#_clip9)">
                            <path d="M43.736,39.6C43.736,39.057 43.629,38.519 43.421,38.017C43.213,37.515 42.909,37.059 42.525,36.675C42.141,36.291 41.685,35.987 41.183,35.779C40.681,35.571 40.143,35.464 39.6,35.464C39.057,35.464 38.519,35.571 38.017,35.779C37.515,35.987 37.059,36.291 36.675,36.675C36.291,37.059 35.987,37.515 35.779,38.017C35.571,38.519 35.464,39.057 35.464,39.6C35.464,40.143 35.571,40.681 35.779,41.183C35.987,41.685 36.291,42.141 36.675,42.525C37.059,42.909 37.515,43.213 38.017,43.421C38.519,43.629 39.057,43.736 39.6,43.736C40.143,43.736 40.681,43.629 41.183,43.421C41.685,43.213 42.141,42.909 42.525,42.525C42.909,42.141 43.213,41.685 43.421,41.183C43.629,40.681 43.736,40.143 43.736,39.6" style="fill:none;fill-rule:nonzero;stroke:rgb(230,230,230);stroke-width:0.5px;"/>
                        </g>
                    </g>
                </g>
                <g id="ytick_2">
                    <g id="line2d_10">
                        <clipPath id="_clip10">
                            <path d="M76.824,39.6C76.824,34.712 75.861,29.871 73.99,25.355C72.12,20.839 69.378,16.735 65.921,13.279C62.465,9.822 58.361,7.08 53.845,5.21C49.329,3.339 44.488,2.376 39.6,2.376C34.712,2.376 29.871,3.339 25.355,5.21C20.839,7.08 16.735,9.822 13.279,13.279C9.822,16.735 7.08,20.839 5.21,25.355C3.339,29.871 2.376,34.712 2.376,39.6C2.376,44.488 3.339,49.329 5.21,53.845C7.08,58.361 9.822,62.465 13.279,65.921C16.735,69.378 20.839,72.12 25.355,73.99C29.871,75.861 34.712,76.824 39.6,76.824C44.488,76.824 49.329,75.861 53.845,73.99C58.361,72.12 62.465,69.378 65.921,65.921C69.378,62.465 72.12,58.361 73.99,53.845C75.861,49.329 76.824,44.488 76.824,39.6M39.6,39.6"/>
                        </clipPath>
                        <g clip-path="url(#_clip10)">
                            <path d="M52.008,39.6C52.008,37.971 51.687,36.357 51.063,34.852C50.44,33.346 49.526,31.978 48.374,30.826C47.222,29.674 45.854,28.76 44.348,28.137C42.843,27.513 41.229,27.192 39.6,27.192C37.971,27.192 36.357,27.513 34.852,28.137C33.346,28.76 31.978,29.674 30.826,30.826C29.674,31.978 28.76,33.346 28.137,34.852C27.513,36.357 27.192,37.971 27.192,39.6C27.192,41.229 27.513,42.843 28.137,44.348C28.76,45.854 29.674,47.222 30.826,48.374C31.978,49.526 33.346,50.44 34.852,51.063C36.357,51.687 37.971,52.008 39.6,52.008C41.229,52.008 42.843,51.687 44.348,51.063C45.854,50.44 47.222,49.526 48.374,48.374C49.526,47.222 50.44,45.854 51.063,44.348C51.687,42.843 52.008,41.229 52.008,39.6" style="fill:none;fill-rule:nonzero;stroke:rgb(230,230,230);stroke-width:0.5px;"/>
                        </g>
                    </g>
                </g>
                <g id="ytick_3">
                    <g id="line2d_11">
                        <clipPath id="_clip11">
                            <path d="M76.824,39.6C76.824,34.712 75.861,29.871 73.99,25.355C72.12,20.839 69.378,16.735 65.921,13.279C62.465,9.822 58.361,7.08 53.845,5.21C49.329,3.339 44.488,2.376 39.6,2.376C34.712,2.376 29.871,3.339 25.355,5.21C20.839,7.08 16.735,9.822 13.279,13.279C9.822,16.735 7.08,20.839 5.21,25.355C3.339,29.871 2.376,34.712 2.376,39.6C2.376,44.488 3.339,49.329 5.21,53.845C7.08,58.361 9.822,62.465 13.279,65.921C16.735,69.378 20.839,72.12 25.355,73.99C29.871,75.861 34.712,76.824 39.6,76.824C44.488,76.824 49.329,75.861 53.845,73.99C58.361,72.12 62.465,69.378 65.921,65.921C69.378,62.465 72.12,58.361 73.99,53.845C75.861,49.329 76.824,44.488 76.824,39.6M39.6,39.6"/>
                        </clipPath>
                        <g clip-path="url(#_clip11)">
                            <path d="M60.28,39.6C60.28,36.884 59.745,34.195 58.706,31.686C57.667,29.177 56.143,26.897 54.223,24.977C52.303,23.057 50.023,21.533 47.514,20.494C45.005,19.455 42.316,18.92 39.6,18.92C36.884,18.92 34.195,19.455 31.686,20.494C29.177,21.533 26.897,23.057 24.977,24.977C23.057,26.897 21.533,29.177 20.494,31.686C19.455,34.195 18.92,36.884 18.92,39.6C18.92,42.316 19.455,45.005 20.494,47.514C21.533,50.023 23.057,52.303 24.977,54.223C26.897,56.143 29.177,57.667 31.686,58.706C34.195,59.745 36.884,60.28 39.6,60.28C42.316,60.28 45.005,59.745 47.514,58.706C50.023,57.667 52.303,56.143 54.223,54.223C56.143,52.303 57.667,50.023 58.706,47.514C59.745,45.005 60.28,42.316 60.28,39.6" style="fill:none;fill-rule:nonzero;stroke:rgb(230,230,230);stroke-width:0.5px;"/>
                        </g>
                    </g>
                </g>
                <g id="ytick_4">
                    <g id="line2d_12">
                        <clipPath id="_clip12">
                            <path d="M76.824,39.6C76.824,34.712 75.861,29.871 73.99,25.355C72.12,20.839 69.378,16.735 65.921,13.279C62.465,9.822 58.361,7.08 53.845,5.21C49.329,3.339 44.488,2.376 39.6,2.376C34.712,2.376 29.871,3.339 25.355,5.21C20.839,7.08 16.735,9.822 13.279,13.279C9.822,16.735 7.08,20.839 5.21,25.355C3.339,29.871 2.376,34.712 2.376,39.6C2.376,44.488 3.339,49.329 5.21,53.845C7.08,58.361 9.822,62.465 13.279,65.921C16.735,69.378 20.839,72.12 25.355,73.99C29.871,75.861 34.712,76.824 39.6,76.824C44.488,76.824 49.329,75.861 53.845,73.99C58.361,72.12 62.465,69.378 65.921,65.921C69.378,62.465 72.12,58.361 73.99,53.845C75.861,49.329 76.824,44.488 76.824,39.6M39.6,39.6"/>
                        </clipPath>
                        <g clip-path="url(#_clip12)">
                            <path d="M68.552,39.6C68.552,35.798 67.803,32.033 66.348,28.521C64.893,25.008 62.761,21.816 60.072,19.128C57.384,16.439 54.192,14.307 50.679,12.852C47.167,11.397 43.402,10.648 39.6,10.648C35.798,10.648 32.033,11.397 28.521,12.852C25.008,14.307 21.816,16.439 19.128,19.128C16.439,21.816 14.307,25.008 12.852,28.521C11.397,32.033 10.648,35.798 10.648,39.6C10.648,43.402 11.397,47.167 12.852,50.679C14.307,54.192 16.439,57.384 19.128,60.072C21.816,62.761 25.008,64.893 28.521,66.348C32.033,67.803 35.798,68.552 39.6,68.552C43.402,68.552 47.167,67.803 50.679,66.348C54.192,64.893 57.384,62.761 60.072,60.072C62.761,57.384 64.893,54.192 66.348,50.679C67.803,47.167 68.552,43.402 68.552,39.6" style="fill:none;fill-rule:nonzero;stroke:rgb(230,230,230);stroke-width:0.5px;"/>
                        </g>
                    </g>
                </g>
            </g>
            <g id="patch_4">
                <clipPath id="_clip13">
                    <path d="M76.824,39.6C76.824,34.712 75.861,29.871 73.99,25.355C72.12,20.839 69.378,16.735 65.921,13.279C62.465,9.822 58.361,7.08 53.845,5.21C49.329,3.339 44.488,2.376 39.6,2.376C34.712,2.376 29.871,3.339 25.355,5.21C20.839,7.08 16.735,9.822 13.279,13.279C9.822,16.735 7.08,20.839 5.21,25.355C3.339,29.871 2.376,34.712 2.376,39.6C2.376,44.488 3.339,49.329 5.21,53.845C7.08,58.361 9.822,62.465 13.279,65.921C16.735,69.378 20.839,72.12 25.355,73.99C29.871,75.861 34.712,76.824 39.6,76.824C44.488,76.824 49.329,75.861 53.845,73.99C58.361,72.12 62.465,69.378 65.921,65.921C69.378,62.465 72.12,58.361 73.99,53.845C75.861,49.329 76.824,44.488 76.824,39.6M39.6,39.6"/>
                </clipPath>
                <g clip-path="url(#_clip13)">
                    <path d="M39.6,39.6L47.467,37.044C47.601,37.456 47.702,37.878 47.77,38.306C47.838,38.734 47.872,39.167 47.872,39.6L39.6,39.6Z" style="fill:rgb(0,76,255);fill-opacity:0.6;fill-rule:nonzero;stroke:rgb(76,76,76);stroke-width:0.7px;stroke-linecap:butt;"/>
                </g>
            </g>
            <g id="patch_5">
                <clipPath id="_clip14">
                    <path d="M76.824,39.6C76.824,34.712 75.861,29.871 73.99,25.355C72.12,20.839 69.378,16.735 65.921,13.279C62.465,9.822 58.361,7.08 53.845,5.21C49.329,3.339 44.488,2.376 39.6,2.376C34.712,2.376 29.871,3.339 25.355,5.21C20.839,7.08 16.735,9.822 13.279,13.279C9.822,16.735 7.08,20.839 5.21,25.355C3.339,29.871 2.376,34.712 2.376,39.6C2.376,44.488 3.339,49.329 5.21,53.845C7.08,58.361 9.822,62.465 13.279,65.921C16.735,69.378 20.839,72.12 25.355,73.99C29.871,75.861 34.712,76.824 39.6,76.824C44.488,76.824 49.329,75.861 53.845,73.99C58.361,72.12 62.465,69.378 65.921,65.921C69.378,62.465 72.12,58.361 73.99,53.845C75.861,49.329 76.824,44.488 76.824,39.6M39.6,39.6"/>
                </clipPath>
                <g clip-path="url(#_clip14)">
                    <path d="M39.6,39.6L48.32,16.366C49.537,16.823 50.716,17.375 51.847,18.017C52.978,18.658 54.056,19.388 55.073,20.198L39.6,39.6Z" style="fill:rgb(206,255,41);fill-opacity:0.6;fill-rule:nonzero;stroke:rgb(76,76,76);stroke-width:0.7px;stroke-linecap:butt;"/>
                </g>
            </g>
            <g id="patch_6">
                <clipPath id="_clip15">
                    <path d="M76.824,39.6C76.824,34.712 75.861,29.871 73.99,25.355C72.12,20.839 69.378,16.735 65.921,13.279C62.465,9.822 58.361,7.08 53.845,5.21C49.329,3.339 44.488,2.376 39.6,2.376C34.712,2.376 29.871,3.339 25.355,5.21C20.839,7.08 16.735,9.822 13.279,13.279C9.822,16.735 7.08,20.839 5.21,25.355C3.339,29.871 2.376,34.712 2.376,39.6C2.376,44.488 3.339,49.329 5.21,53.845C7.08,58.361 9.822,62.465 13.279,65.921C16.735,69.378 20.839,72.12 25.355,73.99C29.871,75.861 34.712,76.824 39.6,76.824C44.488,76.824 49.329,75.861 53.845,73.99C58.361,72.12 62.465,69.378 65.921,65.921C69.378,62.465 72.12,58.361 73.99,53.845C75.861,49.329 76.824,44.488 76.824,39.6M39.6,39.6"/>
                </clipPath>
                <g clip-path="url(#_clip15)">
                    <path d="M39.6,39.6L18.395,14.2C20.392,12.533 22.579,11.107 24.91,9.952C27.241,8.797 29.701,7.921 32.237,7.342L39.6,39.6Z" style="fill:rgb(255,104,0);fill-opacity:0.6;fill-rule:nonzero;stroke:rgb(76,76,76);stroke-width:0.7px;stroke-linecap:butt;"/>
                </g>
            </g>
            <g id="patch_7">
                <clipPath id="_clip16">
                    <path d="M76.824,39.6C76.824,34.712 75.861,29.871 73.99,25.355C72.12,20.839 69.378,16.735 65.921,13.279C62.465,9.822 58.361,7.08 53.845,5.21C49.329,3.339 44.488,2.376 39.6,2.376C34.712,2.376 29.871,3.339 25.355,5.21C20.839,7.08 16.735,9.822 13.279,13.279C9.822,16.735 7.08,20.839 5.21,25.355C3.339,29.871 2.376,34.712 2.376,39.6C2.376,44.488 3.339,49.329 5.21,53.845C7.08,58.361 9.822,62.465 13.279,65.921C16.735,69.378 20.839,72.12 25.355,73.99C29.871,75.861 34.712,76.824 39.6,76.824C44.488,76.824 49.329,75.861 53.845,73.99C58.361,72.12 62.465,69.378 65.921,65.921C69.378,62.465 72.12,58.361 73.99,53.845C75.861,49.329 76.824,44.488 76.824,39.6M39.6,39.6"/>
                </clipPath>
                <g clip-path="url(#_clip16)">
                    <path d="M39.6,39.6L11.113,44.77C10.571,41.78 10.502,38.724 10.91,35.714C11.318,32.703 12.197,29.775 13.515,27.038L39.6,39.6Z" style="fill:rgb(255,196,0);fill-opacity:0.6;fill-rule:nonzero;stroke:rgb(76,76,76);stroke-width:0.7px;stroke-linecap:butt;"/>
                </g>
            </g>
            <g id="patch_8">
                <clipPath id="_clip17">
                    <path d="M76.824,39.6C76.824,34.712 75.861,29.871 73.99,25.355C72.12,20.839 69.378,16.735 65.921,13.279C62.465,9.822 58.361,7.08 53.845,5.21C49.329,3.339 44.488,2.376 39.6,2.376C34.712,2.376 29.871,3.339 25.355,5.21C20.839,7.08 16.735,9.822 13.279,13.279C9.822,16.735 7.08,20.839 5.21,25.355C3.339,29.871 2.376,34.712 2.376,39.6C2.376,44.488 3.339,49.329 5.21,53.845C7.08,58.361 9.822,62.465 13.279,65.921C16.735,69.378 20.839,72.12 25.355,73.99C29.871,75.861 34.712,76.824 39.6,76.824C44.488,76.824 49.329,75.861 53.845,73.99C58.361,72.12 62.465,69.378 65.921,65.921C69.378,62.465 72.12,58.361 73.99,53.845C75.861,49.329 76.824,44.488 76.824,39.6M39.6,39.6"/>
                </clipPath>
                <g clip-path="url(#_clip17)">
                    <path d="M39.6,39.6L26.001,49.022C25.754,48.665 25.522,48.3 25.304,47.926C25.086,47.551 24.882,47.168 24.694,46.778L39.6,39.6Z" style="fill:rgb(41,255,206);fill-opacity:0.6;fill-rule:nonzero;stroke:rgb(76,76,76);stroke-width:0.7px;stroke-linecap:butt;"/>
                </g>
            </g>
            <g id="patch_9">
                <clipPath id="_clip18">
                    <path d="M76.824,39.6C76.824,34.712 75.861,29.871 73.99,25.355C72.12,20.839 69.378,16.735 65.921,13.279C62.465,9.822 58.361,7.08 53.845,5.21C49.329,3.339 44.488,2.376 39.6,2.376C34.712,2.376 29.871,3.339 25.355,5.21C20.839,7.08 16.735,9.822 13.279,13.279C9.822,16.735 7.08,20.839 5.21,25.355C3.339,29.871 2.376,34.712 2.376,39.6C2.376,44.488 3.339,49.329 5.21,53.845C7.08,58.361 9.822,62.465 13.279,65.921C16.735,69.378 20.839,72.12 25.355,73.99C29.871,75.861 34.712,76.824 39.6,76.824C44.488,76.824 49.329,75.861 53.845,73.99C58.361,72.12 62.465,69.378 65.921,65.921C69.378,62.465 72.12,58.361 73.99,53.845C75.861,49.329 76.824,44.488 76.824,39.6M39.6,39.6"/>
                </clipPath>
                <g clip-path="url(#_clip18)">
                    <path d="M39.6,39.6L43.064,59.988C41.729,60.215 40.374,60.31 39.02,60.272C37.666,60.234 36.319,60.063 34.998,59.762L39.6,39.6Z" style="fill:rgb(125,255,122);fill-opacity:0.6;fill-rule:nonzero;stroke:rgb(76,76,76);stroke-width:0.7px;stroke-linecap:butt;"/>
                </g>
            </g>
            <g id="patch_10">
                <clipPath id="_clip19">
                    <path d="M76.824,39.6C76.824,34.712 75.861,29.871 73.99,25.355C72.12,20.839 69.378,16.735 65.921,13.279C62.465,9.822 58.361,7.08 53.845,5.21C49.329,3.339 44.488,2.376 39.6,2.376C34.712,2.376 29.871,3.339 25.355,5.21C20.839,7.08 16.735,9.822 13.279,13.279C9.822,16.735 7.08,20.839 5.21,25.355C3.339,29.871 2.376,34.712 2.376,39.6C2.376,44.488 3.339,49.329 5.21,53.845C7.08,58.361 9.822,62.465 13.279,65.921C16.735,69.378 20.839,72.12 25.355,73.99C29.871,75.861 34.712,76.824 39.6,76.824C44.488,76.824 49.329,75.861 53.845,73.99C58.361,72.12 62.465,69.378 65.921,65.921C69.378,62.465 72.12,58.361 73.99,53.845C75.861,49.329 76.824,44.488 76.824,39.6M39.6,39.6"/>
                </clipPath>
                <g clip-path="url(#_clip19)">
                    <path d="M39.6,39.6L65.699,59.938C64.9,60.964 64.042,61.941 63.128,62.865C62.214,63.789 61.246,64.659 60.23,65.469L39.6,39.6Z" style="fill:rgb(255,104,0);fill-opacity:0.6;fill-rule:nonzero;stroke:rgb(76,76,76);stroke-width:0.7px;stroke-linecap:butt;"/>
                </g>
            </g>
            <g id="patch_11">
                <path d="M76.824,39.6C76.824,34.712 75.861,29.871 73.99,25.355C72.12,20.839 69.378,16.735 65.921,13.279C62.465,9.822 58.361,7.08 53.845,5.21C49.329,3.339 44.488,2.376 39.6,2.376C34.712,2.376 29.871,3.339 25.355,5.21C20.839,7.08 16.735,9.822 13.279,13.279C9.822,16.735 7.08,20.839 5.21,25.355C3.339,29.871 2.376,34.712 2.376,39.6C2.376,44.488 3.339,49.329 5.21,53.845C7.08,58.361 9.822,62.465 13.279,65.921C16.735,69.378 20.839,72.12 25.355,73.99C29.871,75.861 34.712,76.824 39.6,76.824C44.488,76.824 49.329,75.861 53.845,73.99C58.361,72.12 62.465,69.378 65.921,65.921C69.378,62.465 72.12,58.361 73.99,53.845C75.861,49.329 76.824,44.488 76.824,39.6" style="fill:none;fill-rule:nonzero;stroke:rgb(17,85,124);stroke-width:1px;"/>
            </g>
        </g>
    </g>
</svg>
