<?xml version="1.0" encoding="UTF-8" standalone="no"?>
<!DOCTYPE svg PUBLIC "-//W3C//DTD SVG 1.1//EN" "http://www.w3.org/Graphics/SVG/1.1/DTD/svg11.dtd">
<svg width="100%" height="100%" viewBox="0 0 1000 600" version="1.1" xmlns="http://www.w3.org/2000/svg" xmlns:xlink="http://www.w3.org/1999/xlink" xml:space="preserve" xmlns:serif="http://www.serif.com/" style="fill-rule:evenodd;clip-rule:evenodd;stroke-miterlimit:10;">
    <g transform="matrix(1,0,0,1,-819.04,-50.35)">
        <g transform="matrix(1.02041,0,0,0.882353,798.632,32.7029)">
            <path d="M1000,96.836C1000,54.429 970.229,20 933.559,20L86.441,20C49.771,20 20,54.429 20,96.836L20,623.164C20,665.571 49.771,700 86.441,700L933.559,700C970.229,700 1000,665.571 1000,623.164L1000,96.836Z" style="fill:white;"/>
        </g>
        <g transform="matrix(1,0,0,1,0.0495212,0.741411)">
            <g transform="matrix(7.92426,0,0,7.92426,-1189.49,-5166.41)">
                <rect x="266.563" y="691.998" width="2.211" height="19.058" style="stroke:black;stroke-width:0.57px;"/>
            </g>
            <g transform="matrix(7.92426,0,0,7.92426,-1189.49,-5166.41)">
                <rect x="366.055" y="691.998" width="2.211" height="19.058" style="stroke:black;stroke-width:0.57px;"/>
            </g>
            <g transform="matrix(7.92426,0,0,7.92426,-1189.49,-5166.41)">
                <rect x="282.039" y="691.998" width="4.422" height="19.058" style="stroke:black;stroke-width:0.57px;"/>
            </g>
            <g transform="matrix(7.92426,0,0,7.92426,-1189.49,-5166.41)">
                <rect x="315.204" y="691.998" width="4.421" height="19.058" style="stroke:black;stroke-width:0.57px;"/>
            </g>
            <g transform="matrix(7.92426,0,0,7.92426,-1189.49,-5166.41)">
                <rect x="348.368" y="691.998" width="4.422" height="19.058" style="stroke:black;stroke-width:0.57px;"/>
            </g>
            <g transform="matrix(7.92426,0,0,7.92426,-1189.49,-5166.41)">
                <rect x="298.621" y="691.998" width="4.422" height="19.058" style="fill:rgb(0,191,191);stroke:rgb(0,191,191);stroke-width:0.57px;"/>
            </g>
            <g transform="matrix(7.92426,0,0,7.92426,-1189.49,-5166.41)">
                <rect x="331.786" y="691.998" width="4.422" height="19.058" style="fill:rgb(255,165,0);stroke:rgb(255,165,0);stroke-width:0.57px;"/>
            </g>
            <g transform="matrix(7.92426,0,0,7.92426,1166.25,531.621)">
                <path d="M0,-3.762L0.686,-3.762L1.723,-0.536L2.353,-3.762L2.849,-3.762L2.116,0L1.429,0L0.392,-3.246L-0.238,0L-0.733,0L0,-3.762" style="fill-rule:nonzero;"/>
            </g>
            <g transform="matrix(7.92426,0,0,7.92426,1691.86,531.621)">
                <path d="M0,-3.762L0.686,-3.762L1.724,-0.536L2.353,-3.762L2.848,-3.762L2.116,0L1.43,0L0.391,-3.246L-0.237,0L-0.734,0L0,-3.762" style="fill-rule:nonzero;"/>
            </g>
            <g transform="matrix(7.92426,0,0,7.92426,1018.33,415.903)">
                <path d="M0,-2.026L-0.072,-1.669C-0.16,-1.73 -0.253,-1.778 -0.349,-1.809C-0.446,-1.842 -0.546,-1.858 -0.651,-1.858C-0.767,-1.858 -0.875,-1.838 -0.98,-1.797C-1.084,-1.757 -1.172,-1.697 -1.241,-1.625C-1.353,-1.509 -1.441,-1.376 -1.501,-1.223C-1.566,-1.071 -1.594,-0.91 -1.594,-0.75C-1.594,-0.549 -1.546,-0.405 -1.445,-0.308C-1.349,-0.212 -1.197,-0.164 -0.996,-0.164C-0.899,-0.164 -0.791,-0.175 -0.679,-0.207C-0.566,-0.236 -0.45,-0.28 -0.329,-0.344L-0.398,0.013C-0.502,0.057 -0.61,0.085 -0.722,0.105C-0.835,0.126 -0.948,0.137 -1.06,0.137C-1.353,0.137 -1.577,0.065 -1.734,-0.079C-1.891,-0.224 -1.968,-0.428 -1.968,-0.701C-1.968,-0.926 -1.927,-1.135 -1.847,-1.328C-1.766,-1.521 -1.642,-1.693 -1.482,-1.846C-1.373,-1.95 -1.244,-2.026 -1.096,-2.082C-0.951,-2.135 -0.787,-2.163 -0.61,-2.163C-0.51,-2.163 -0.41,-2.151 -0.309,-2.127C-0.209,-2.103 -0.104,-2.071 0,-2.026" style="fill-rule:nonzero;"/>
            </g>
            <g transform="matrix(7.92426,0,0,7.92426,1034.55,416.069)">
                <path d="M0,-1.289C0,-1.481 -0.045,-1.626 -0.124,-1.73C-0.209,-1.83 -0.33,-1.883 -0.486,-1.883C-0.595,-1.883 -0.699,-1.854 -0.795,-1.799C-0.892,-1.743 -0.98,-1.666 -1.052,-1.562C-1.128,-1.458 -1.188,-1.329 -1.233,-1.184C-1.277,-1.04 -1.297,-0.896 -1.297,-0.751C-1.297,-0.566 -1.257,-0.426 -1.173,-0.329C-1.093,-0.229 -0.972,-0.181 -0.815,-0.181C-0.703,-0.181 -0.599,-0.205 -0.502,-0.261C-0.406,-0.313 -0.322,-0.39 -0.249,-0.494C-0.177,-0.598 -0.117,-0.727 -0.069,-0.872C-0.024,-1.016 0,-1.157 0,-1.289M-1.117,-1.799C-1.02,-1.923 -0.908,-2.019 -0.775,-2.083C-0.647,-2.148 -0.498,-2.184 -0.338,-2.184C-0.113,-2.184 0.06,-2.108 0.185,-1.963C0.309,-1.815 0.373,-1.61 0.373,-1.345C0.373,-1.128 0.333,-0.919 0.256,-0.723C0.176,-0.526 0.068,-0.349 -0.077,-0.197C-0.173,-0.093 -0.286,-0.012 -0.406,0.04C-0.526,0.088 -0.655,0.116 -0.788,0.116C-0.944,0.116 -1.077,0.084 -1.181,0.024C-1.285,-0.04 -1.365,-0.136 -1.417,-0.265L-1.643,0.895L-1.999,0.895L-1.414,-2.132L-1.052,-2.132L-1.117,-1.799" style="fill-rule:nonzero;"/>
            </g>
            <g transform="matrix(7.92426,0,0,7.92426,988.871,388.81)">
                <path d="M0,1.99C0.046,2.082 0.172,2.128 0.378,2.128L0.625,2.128L0.539,2.563L0.229,2.563C-0.108,2.563 -0.338,2.477 -0.453,2.294C-0.573,2.11 -0.59,1.823 -0.51,1.428L-0.224,-0.057L-1.405,-0.057L-1.302,-0.573L1.589,-0.573L1.491,-0.057L0.304,-0.057L0.006,1.456C-0.051,1.732 -0.051,1.909 0,1.99" style="fill-rule:nonzero;"/>
            </g>
            <g transform="matrix(7.92426,0,0,7.92426,1127.84,415.903)">
                <path d="M0,-2.026L-0.073,-1.669C-0.161,-1.73 -0.253,-1.778 -0.35,-1.809C-0.446,-1.842 -0.546,-1.858 -0.651,-1.858C-0.768,-1.858 -0.876,-1.838 -0.98,-1.797C-1.085,-1.757 -1.173,-1.697 -1.241,-1.625C-1.353,-1.509 -1.442,-1.376 -1.502,-1.223C-1.566,-1.071 -1.594,-0.91 -1.594,-0.75C-1.594,-0.549 -1.546,-0.405 -1.446,-0.308C-1.35,-0.212 -1.197,-0.164 -0.996,-0.164C-0.9,-0.164 -0.791,-0.175 -0.679,-0.207C-0.567,-0.236 -0.45,-0.28 -0.33,-0.344L-0.398,0.013C-0.503,0.057 -0.611,0.085 -0.723,0.105C-0.836,0.126 -0.948,0.137 -1.061,0.137C-1.353,0.137 -1.579,0.065 -1.735,-0.079C-1.892,-0.224 -1.968,-0.428 -1.968,-0.701C-1.968,-0.926 -1.928,-1.135 -1.847,-1.328C-1.767,-1.521 -1.643,-1.693 -1.482,-1.846C-1.373,-1.95 -1.246,-2.026 -1.097,-2.082C-0.952,-2.135 -0.788,-2.163 -0.611,-2.163C-0.511,-2.163 -0.41,-2.151 -0.31,-2.127C-0.209,-2.103 -0.105,-2.071 0,-2.026" style="fill-rule:nonzero;"/>
            </g>
            <g transform="matrix(7.92426,0,0,7.92426,1144.04,416.069)">
                <path d="M0,-1.289C0,-1.481 -0.044,-1.626 -0.125,-1.73C-0.209,-1.83 -0.33,-1.883 -0.486,-1.883C-0.594,-1.883 -0.698,-1.854 -0.795,-1.799C-0.892,-1.743 -0.98,-1.666 -1.052,-1.562C-1.128,-1.458 -1.189,-1.329 -1.232,-1.184C-1.276,-1.04 -1.297,-0.896 -1.297,-0.751C-1.297,-0.566 -1.256,-0.426 -1.172,-0.329C-1.092,-0.229 -0.972,-0.181 -0.815,-0.181C-0.703,-0.181 -0.598,-0.205 -0.502,-0.261C-0.405,-0.313 -0.321,-0.39 -0.249,-0.494C-0.177,-0.598 -0.116,-0.727 -0.068,-0.872C-0.024,-1.016 0,-1.157 0,-1.289M-1.116,-1.799C-1.02,-1.923 -0.907,-2.019 -0.774,-2.083C-0.647,-2.148 -0.498,-2.184 -0.337,-2.184C-0.112,-2.184 0.06,-2.108 0.185,-1.963C0.309,-1.815 0.373,-1.61 0.373,-1.345C0.373,-1.128 0.333,-0.919 0.257,-0.723C0.177,-0.526 0.068,-0.349 -0.077,-0.197C-0.172,-0.093 -0.285,-0.012 -0.405,0.04C-0.526,0.088 -0.654,0.116 -0.787,0.116C-0.943,0.116 -1.076,0.084 -1.18,0.024C-1.285,-0.04 -1.365,-0.136 -1.418,-0.265L-1.642,0.895L-2,0.895L-1.413,-2.132L-1.052,-2.132L-1.116,-1.799" style="fill-rule:nonzero;"/>
            </g>
            <g transform="matrix(7.92426,0,0,7.92426,1098.38,388.81)">
                <path d="M0,1.99C0.045,2.082 0.171,2.128 0.378,2.128L0.624,2.128L0.538,2.563L0.229,2.563C-0.109,2.563 -0.339,2.477 -0.453,2.294C-0.574,2.11 -0.591,1.823 -0.511,1.428L-0.224,-0.057L-1.405,-0.057L-1.302,-0.573L1.588,-0.573L1.491,-0.057L0.303,-0.057L0.005,1.456C-0.052,1.732 -0.052,1.909 0,1.99" style="fill-rule:nonzero;"/>
            </g>
            <g transform="matrix(7.92426,0,0,7.92426,1543.94,415.903)">
                <path d="M0,-2.026L-0.072,-1.669C-0.161,-1.73 -0.252,-1.778 -0.349,-1.809C-0.446,-1.842 -0.546,-1.858 -0.65,-1.858C-0.767,-1.858 -0.875,-1.838 -0.98,-1.797C-1.084,-1.757 -1.172,-1.697 -1.24,-1.625C-1.353,-1.509 -1.441,-1.376 -1.502,-1.223C-1.566,-1.071 -1.594,-0.91 -1.594,-0.75C-1.594,-0.549 -1.546,-0.405 -1.445,-0.308C-1.349,-0.212 -1.196,-0.164 -0.996,-0.164C-0.9,-0.164 -0.791,-0.175 -0.679,-0.207C-0.567,-0.236 -0.449,-0.28 -0.329,-0.344L-0.398,0.013C-0.501,0.057 -0.611,0.085 -0.723,0.105C-0.835,0.126 -0.948,0.137 -1.06,0.137C-1.353,0.137 -1.577,0.065 -1.735,-0.079C-1.891,-0.224 -1.967,-0.428 -1.967,-0.701C-1.967,-0.926 -1.927,-1.135 -1.847,-1.328C-1.767,-1.521 -1.642,-1.693 -1.482,-1.846C-1.372,-1.95 -1.244,-2.026 -1.096,-2.082C-0.951,-2.135 -0.786,-2.163 -0.611,-2.163C-0.51,-2.163 -0.409,-2.151 -0.31,-2.127C-0.209,-2.103 -0.104,-2.071 0,-2.026" style="fill-rule:nonzero;"/>
            </g>
            <g transform="matrix(7.92426,0,0,7.92426,1560.14,416.069)">
                <path d="M0,-1.289C0,-1.481 -0.044,-1.626 -0.123,-1.73C-0.208,-1.83 -0.328,-1.883 -0.486,-1.883C-0.594,-1.883 -0.699,-1.854 -0.794,-1.799C-0.89,-1.743 -0.979,-1.666 -1.052,-1.562C-1.127,-1.458 -1.188,-1.329 -1.232,-1.184C-1.276,-1.04 -1.296,-0.896 -1.296,-0.751C-1.296,-0.566 -1.256,-0.426 -1.172,-0.329C-1.091,-0.229 -0.971,-0.181 -0.815,-0.181C-0.702,-0.181 -0.598,-0.205 -0.502,-0.261C-0.405,-0.313 -0.321,-0.39 -0.248,-0.494C-0.176,-0.598 -0.116,-0.727 -0.068,-0.872C-0.024,-1.016 0,-1.157 0,-1.289M-1.116,-1.799C-1.019,-1.923 -0.907,-2.019 -0.774,-2.083C-0.646,-2.148 -0.497,-2.184 -0.336,-2.184C-0.112,-2.184 0.061,-2.108 0.185,-1.963C0.309,-1.815 0.374,-1.61 0.374,-1.345C0.374,-1.128 0.334,-0.919 0.258,-0.723C0.177,-0.526 0.068,-0.349 -0.075,-0.197C-0.172,-0.093 -0.284,-0.012 -0.405,0.04C-0.526,0.088 -0.654,0.116 -0.786,0.116C-0.943,0.116 -1.075,0.084 -1.18,0.024C-1.283,-0.04 -1.365,-0.136 -1.416,-0.265L-1.641,0.895L-1.998,0.895L-1.412,-2.132L-1.052,-2.132L-1.116,-1.799" style="fill-rule:nonzero;"/>
            </g>
            <g transform="matrix(7.92426,0,0,7.92426,1514.48,388.81)">
                <path d="M0,1.99C0.046,2.082 0.172,2.128 0.379,2.128L0.625,2.128L0.54,2.563L0.23,2.563C-0.109,2.563 -0.338,2.477 -0.453,2.294C-0.573,2.11 -0.591,1.823 -0.511,1.428L-0.224,-0.057L-1.404,-0.057L-1.302,-0.573L1.589,-0.573L1.491,-0.057L0.305,-0.057L0.006,1.456C-0.051,1.732 -0.051,1.909 0,1.99" style="fill-rule:nonzero;"/>
            </g>
            <g transform="matrix(7.92426,0,0,7.92426,1653.42,415.903)">
                <path d="M0,-2.026L-0.071,-1.669C-0.16,-1.73 -0.253,-1.778 -0.349,-1.809C-0.445,-1.842 -0.546,-1.858 -0.65,-1.858C-0.766,-1.858 -0.875,-1.838 -0.979,-1.797C-1.084,-1.757 -1.172,-1.697 -1.24,-1.625C-1.352,-1.509 -1.441,-1.376 -1.501,-1.223C-1.565,-1.071 -1.594,-0.91 -1.594,-0.75C-1.594,-0.549 -1.545,-0.405 -1.445,-0.308C-1.348,-0.212 -1.195,-0.164 -0.995,-0.164C-0.899,-0.164 -0.791,-0.175 -0.679,-0.207C-0.566,-0.236 -0.449,-0.28 -0.329,-0.344L-0.397,0.013C-0.502,0.057 -0.61,0.085 -0.722,0.105C-0.835,0.126 -0.947,0.137 -1.059,0.137C-1.352,0.137 -1.577,0.065 -1.734,-0.079C-1.89,-0.224 -1.967,-0.428 -1.967,-0.701C-1.967,-0.926 -1.928,-1.135 -1.846,-1.328C-1.765,-1.521 -1.642,-1.693 -1.48,-1.846C-1.373,-1.95 -1.244,-2.026 -1.096,-2.082C-0.951,-2.135 -0.787,-2.163 -0.61,-2.163C-0.509,-2.163 -0.409,-2.151 -0.308,-2.127C-0.208,-2.103 -0.104,-2.071 0,-2.026" style="fill-rule:nonzero;"/>
            </g>
            <g transform="matrix(7.92426,0,0,7.92426,1669.65,416.069)">
                <path d="M0,-1.289C0,-1.481 -0.044,-1.626 -0.125,-1.73C-0.209,-1.83 -0.329,-1.883 -0.485,-1.883C-0.594,-1.883 -0.698,-1.854 -0.795,-1.799C-0.892,-1.743 -0.979,-1.666 -1.052,-1.562C-1.129,-1.458 -1.188,-1.329 -1.231,-1.184C-1.276,-1.04 -1.297,-0.896 -1.297,-0.751C-1.297,-0.566 -1.257,-0.426 -1.173,-0.329C-1.093,-0.229 -0.972,-0.181 -0.814,-0.181C-0.702,-0.181 -0.598,-0.205 -0.502,-0.261C-0.406,-0.313 -0.321,-0.39 -0.249,-0.494C-0.176,-0.598 -0.116,-0.727 -0.068,-0.872C-0.024,-1.016 0,-1.157 0,-1.289M-1.116,-1.799C-1.019,-1.923 -0.907,-2.019 -0.775,-2.083C-0.646,-2.148 -0.498,-2.184 -0.338,-2.184C-0.112,-2.184 0.06,-2.108 0.185,-1.963C0.31,-1.815 0.374,-1.61 0.374,-1.345C0.374,-1.128 0.333,-0.919 0.257,-0.723C0.177,-0.526 0.068,-0.349 -0.076,-0.197C-0.173,-0.093 -0.285,-0.012 -0.406,0.04C-0.526,0.088 -0.654,0.116 -0.787,0.116C-0.943,0.116 -1.076,0.084 -1.18,0.024C-1.285,-0.04 -1.364,-0.136 -1.417,-0.265L-1.643,0.895L-2,0.895L-1.414,-2.132L-1.052,-2.132L-1.116,-1.799" style="fill-rule:nonzero;"/>
            </g>
            <g transform="matrix(7.92426,0,0,7.92426,1623.97,388.81)">
                <path d="M0,1.99C0.047,2.082 0.172,2.128 0.379,2.128L0.625,2.128L0.539,2.563L0.23,2.563C-0.108,2.563 -0.337,2.477 -0.453,2.294C-0.573,2.11 -0.589,1.823 -0.51,1.428L-0.223,-0.057L-1.405,-0.057L-1.301,-0.573L1.588,-0.573L1.492,-0.057L0.304,-0.057L0.006,1.456C-0.051,1.732 -0.051,1.909 0,1.99" style="fill-rule:nonzero;"/>
            </g>
            <g transform="matrix(7.92426,0,0,7.92426,1340.4,213.897)">
                <path d="M0,2.775L1.657,2.775L1.657,3.175L-0.573,3.175L-0.573,2.775C-0.395,2.592 -0.149,2.341 0.164,2.023C0.473,1.71 0.67,1.508 0.751,1.417C0.906,1.248 1.012,1.103 1.07,0.983C1.128,0.867 1.161,0.747 1.161,0.631C1.161,0.448 1.094,0.294 0.963,0.178C0.833,0.063 0.664,-0 0.453,-0C0.304,-0 0.144,0.029 -0.019,0.077C-0.183,0.13 -0.362,0.207 -0.549,0.313L-0.549,-0.169C-0.356,-0.245 -0.177,-0.304 -0.014,-0.342C0.15,-0.38 0.304,-0.4 0.444,-0.4C0.805,-0.4 1.094,-0.308 1.311,-0.125C1.528,0.058 1.638,0.299 1.638,0.602C1.638,0.747 1.61,0.886 1.557,1.012C1.503,1.142 1.406,1.296 1.262,1.469C1.224,1.518 1.098,1.647 0.887,1.864C0.675,2.082 0.381,2.384 0,2.775" style="fill-rule:nonzero;"/>
            </g>
            <g transform="matrix(7.92426,0,0,7.92426,1316.92,241.401)">
                <path d="M0,-6.655L0,-5.265C0.441,-5.265 0.812,-5.093 1.115,-4.749C1.418,-4.398 1.577,-3.917 1.577,-3.304C1.577,-2.685 1.418,-2.202 1.115,-1.858C0.812,-1.514 0.441,-1.349 0,-1.349L0,0L-0.612,0L-0.612,-1.349C-1.06,-1.349 -1.431,-1.514 -1.734,-1.858C-2.037,-2.202 -2.188,-2.685 -2.188,-3.304C-2.188,-3.917 -2.037,-4.398 -1.734,-4.749C-1.431,-5.093 -1.06,-5.265 -0.612,-5.265L-0.612,-6.655L0,-6.655M0,-1.893C0.248,-1.893 0.461,-2.003 0.641,-2.237C0.827,-2.492 0.922,-2.849 0.922,-3.304C0.922,-3.751 0.832,-4.109 0.641,-4.37C0.461,-4.597 0.248,-4.715 0,-4.715L0,-1.893M-0.612,-1.893L-0.612,-4.715C-0.867,-4.715 -1.081,-4.597 -1.252,-4.37C-1.445,-4.109 -1.542,-3.751 -1.542,-3.304C-1.542,-2.849 -1.445,-2.492 -1.252,-2.237C-1.081,-2.003 -0.867,-1.893 -0.612,-1.893" style="fill-rule:nonzero;"/>
            </g>
            <g transform="matrix(7.92426,0,0,7.92426,1075,267.981)">
                <path d="M0,2.713L0.775,2.713L0.775,0.034L-0.068,0.203L-0.068,-0.231L0.771,-0.399L1.247,-0.399L1.247,2.713L2.023,2.713L2.023,3.112L0,3.112L0,2.713" style="fill-rule:nonzero;"/>
            </g>
            <g transform="matrix(7.92426,0,0,7.92426,1049.27,264.556)">
                <path d="M0,2.491C-0.523,2.415 -0.902,2.27 -1.135,2.05C-1.432,1.789 -1.576,1.383 -1.576,0.832L-1.576,-1.349L-0.95,-1.349L-0.95,0.812C-0.95,1.224 -0.86,1.514 -0.667,1.679C-0.502,1.83 -0.282,1.92 0,1.947L0,-1.349L0.612,-1.349L0.612,1.947C0.901,1.92 1.128,1.83 1.28,1.679C1.466,1.493 1.562,1.204 1.562,0.804L1.562,-1.349L2.188,-1.349L2.188,0.832C2.188,1.397 2.037,1.802 1.748,2.043C1.479,2.27 1.101,2.415 0.612,2.491L0.612,3.84L0,3.84L0,2.491" style="fill-rule:nonzero;"/>
            </g>
            <g transform="matrix(7.92426,0,0,7.92426,1603.2,267.481)">
                <path d="M0,2.776L1.658,2.776L1.658,3.175L-0.573,3.175L-0.573,2.776C-0.395,2.593 -0.149,2.342 0.163,2.024C0.473,1.711 0.669,1.508 0.752,1.417C0.906,1.248 1.011,1.104 1.07,0.984C1.128,0.868 1.161,0.747 1.161,0.632C1.161,0.449 1.094,0.295 0.963,0.179C0.833,0.064 0.665,0.001 0.452,0.001C0.304,0.001 0.145,0.03 -0.019,0.078C-0.182,0.131 -0.361,0.208 -0.549,0.314L-0.549,-0.168C-0.357,-0.245 -0.177,-0.303 -0.014,-0.342C0.15,-0.38 0.304,-0.399 0.443,-0.399C0.805,-0.399 1.094,-0.307 1.311,-0.125C1.528,0.058 1.638,0.299 1.638,0.603C1.638,0.747 1.61,0.887 1.556,1.012C1.503,1.143 1.408,1.297 1.262,1.47C1.224,1.518 1.098,1.648 0.887,1.865C0.675,2.082 0.38,2.385 0,2.776" style="fill-rule:nonzero;"/>
            </g>
            <g transform="matrix(7.92426,0,0,7.92426,1574.86,264.556)">
                <path d="M0,2.491C-0.522,2.415 -0.902,2.27 -1.136,2.05C-1.432,1.789 -1.575,1.383 -1.575,0.832L-1.575,-1.349L-0.95,-1.349L-0.95,0.812C-0.95,1.224 -0.86,1.514 -0.668,1.679C-0.502,1.83 -0.282,1.92 0,1.947L0,-1.349L0.612,-1.349L0.612,1.947C0.901,1.92 1.129,1.83 1.279,1.679C1.466,1.493 1.562,1.204 1.562,0.804L1.562,-1.349L2.189,-1.349L2.189,0.832C2.189,1.397 2.037,1.802 1.748,2.043C1.48,2.27 1.102,2.415 0.612,2.491L0.612,3.84L0,3.84L0,2.491" style="fill-rule:nonzero;"/>
            </g>
            <g transform="matrix(7.92426,0,0,7.92426,974.208,194.649)">
                <path d="M0,-5.017L4.246,-5.017L4.136,-4.446L2.346,-4.446L1.487,0L0.805,0L1.665,-4.446L-0.11,-4.446L0,-5.017" style="fill-rule:nonzero;"/>
            </g>
            <g transform="matrix(7.92426,0,0,7.92426,1021.34,199.927)">
                <path d="M0,-1.772C-0.048,-1.791 -0.096,-1.811 -0.154,-1.825C-0.212,-1.835 -0.269,-1.845 -0.332,-1.845C-0.563,-1.845 -0.766,-1.753 -0.939,-1.58C-1.113,-1.406 -1.224,-1.17 -1.281,-0.881L-1.546,0.463L-1.979,0.463L-1.464,-2.172L-1.031,-2.172L-1.113,-1.763C-1.002,-1.912 -0.867,-2.028 -0.703,-2.109C-0.544,-2.191 -0.375,-2.235 -0.192,-2.235C-0.149,-2.235 -0.105,-2.23 -0.058,-2.225C-0.01,-2.221 0.034,-2.21 0.082,-2.201L0,-1.772" style="fill-rule:nonzero;"/>
            </g>
            <g transform="matrix(7.92426,0,0,7.92426,1038.38,195.007)">
                <path d="M0,-0.468C0,-0.492 0.004,-0.516 0.009,-0.545C0.009,-0.573 0.014,-0.598 0.014,-0.627C0.014,-0.82 -0.044,-0.968 -0.154,-1.08C-0.271,-1.191 -0.419,-1.248 -0.613,-1.248C-0.829,-1.248 -1.017,-1.176 -1.181,-1.041C-1.344,-0.906 -1.47,-0.714 -1.557,-0.468L0,-0.468M0.375,-0.131L-1.639,-0.131C-1.648,-0.068 -1.658,-0.02 -1.658,0.013C-1.663,0.048 -1.663,0.076 -1.663,0.1C-1.663,0.322 -1.595,0.49 -1.46,0.607C-1.325,0.727 -1.138,0.784 -0.892,0.784C-0.709,0.784 -0.53,0.765 -0.362,0.722C-0.193,0.683 -0.034,0.621 0.11,0.534L0.028,0.963C-0.13,1.031 -0.294,1.074 -0.458,1.102C-0.622,1.132 -0.791,1.146 -0.959,1.146C-1.325,1.146 -1.609,1.059 -1.802,0.886C-2,0.713 -2.096,0.467 -2.096,0.144C-2.096,-0.126 -2.048,-0.381 -1.952,-0.617C-1.855,-0.853 -1.71,-1.065 -1.518,-1.253C-1.398,-1.368 -1.253,-1.455 -1.084,-1.518C-0.916,-1.581 -0.738,-1.614 -0.545,-1.614C-0.246,-1.614 -0.01,-1.523 0.168,-1.344C0.341,-1.166 0.434,-0.925 0.434,-0.627C0.434,-0.555 0.428,-0.477 0.418,-0.396C0.409,-0.309 0.395,-0.222 0.375,-0.131" style="fill-rule:nonzero;"/>
            </g>
            <g transform="matrix(7.92426,0,0,7.92426,1050.47,203.588)">
                <path d="M0,-3.661L0.433,-3.661L-0.279,0L-0.713,0L0,-3.661" style="fill-rule:nonzero;"/>
            </g>
            <g transform="matrix(7.92426,0,0,7.92426,1074.59,194.619)">
                <path d="M0,-0.37L-0.293,1.133L-0.727,1.133L-0.645,0.733C-0.775,0.892 -0.92,1.008 -1.083,1.085C-1.247,1.157 -1.425,1.195 -1.623,1.195C-1.849,1.195 -2.032,1.128 -2.177,0.993C-2.322,0.859 -2.389,0.685 -2.389,0.468C-2.389,0.16 -2.268,-0.081 -2.023,-0.259C-1.777,-0.438 -1.44,-0.529 -1.007,-0.529L-0.404,-0.529L-0.38,-0.644C-0.38,-0.654 -0.375,-0.669 -0.375,-0.683C-0.375,-0.698 -0.37,-0.722 -0.37,-0.755C-0.37,-0.895 -0.428,-1.006 -0.544,-1.083C-0.659,-1.16 -0.818,-1.199 -1.021,-1.199C-1.165,-1.199 -1.31,-1.179 -1.454,-1.141C-1.603,-1.102 -1.758,-1.05 -1.912,-0.982L-1.835,-1.382C-1.671,-1.439 -1.512,-1.488 -1.358,-1.516C-1.204,-1.545 -1.05,-1.565 -0.905,-1.565C-0.597,-1.565 -0.361,-1.497 -0.196,-1.362C-0.033,-1.227 0.049,-1.03 0.049,-0.775C0.049,-0.722 0.044,-0.659 0.034,-0.591C0.025,-0.519 0.015,-0.447 0,-0.37M-0.467,-0.192L-0.9,-0.192C-1.257,-0.192 -1.517,-0.143 -1.685,-0.047C-1.859,0.049 -1.941,0.194 -1.941,0.391C-1.941,0.531 -1.898,0.642 -1.811,0.719C-1.724,0.796 -1.603,0.834 -1.449,0.834C-1.218,0.834 -1.011,0.752 -0.838,0.584C-0.664,0.415 -0.544,0.189 -0.486,-0.096L-0.467,-0.192" style="fill-rule:nonzero;"/>
            </g>
            <g transform="matrix(7.92426,0,0,7.92426,1100.39,203.588)">
                <path d="M0,-2.635L-1.209,-1.344L-0.467,0L-0.964,0L-1.522,-1.045L-2.49,0L-3.011,0L-1.72,-1.388L-2.409,-2.635L-1.912,-2.635L-1.407,-1.681L-0.525,-2.635L0,-2.635" style="fill-rule:nonzero;"/>
            </g>
            <g transform="matrix(7.92426,0,0,7.92426,1115.42,199.666)">
                <path d="M0,-5.65L0.571,-5.65L-1.177,0L-1.748,0L0,-5.65" style="fill-rule:nonzero;"/>
            </g>
            <g transform="matrix(7.92426,0,0,7.92426,1130.42,158.705)">
                <path d="M0,3.964L2.367,3.964L2.367,4.535L-0.819,4.535L-0.819,3.964C-0.565,3.703 -0.213,3.345 0.234,2.89C0.675,2.443 0.957,2.154 1.073,2.024C1.294,1.782 1.445,1.576 1.528,1.404C1.61,1.239 1.658,1.067 1.658,0.902C1.658,0.64 1.562,0.42 1.376,0.255C1.19,0.09 0.949,-0 0.647,-0C0.434,-0 0.206,0.041 -0.028,0.11C-0.262,0.186 -0.516,0.296 -0.785,0.447L-0.785,-0.241C-0.51,-0.351 -0.255,-0.433 -0.021,-0.489C0.213,-0.544 0.434,-0.571 0.633,-0.571C1.149,-0.571 1.562,-0.44 1.872,-0.179C2.181,0.082 2.34,0.426 2.34,0.86C2.34,1.067 2.299,1.266 2.223,1.446C2.147,1.631 2.009,1.851 1.803,2.099C1.748,2.168 1.569,2.354 1.266,2.663C0.963,2.973 0.544,3.406 0,3.964" style="fill-rule:nonzero;"/>
            </g>
            <g transform="matrix(7.92426,0,0,7.92426,1499.81,194.649)">
                <path d="M0,-5.017L4.248,-5.017L4.137,-4.446L2.347,-4.446L1.487,0L0.806,0L1.666,-4.446L-0.109,-4.446L0,-5.017" style="fill-rule:nonzero;"/>
            </g>
            <g transform="matrix(7.92426,0,0,7.92426,1546.94,199.927)">
                <path d="M0,-1.772C-0.048,-1.791 -0.096,-1.811 -0.155,-1.825C-0.211,-1.835 -0.27,-1.845 -0.332,-1.845C-0.563,-1.845 -0.765,-1.753 -0.939,-1.58C-1.113,-1.406 -1.223,-1.17 -1.281,-0.881L-1.546,0.463L-1.98,0.463L-1.464,-2.172L-1.03,-2.172L-1.113,-1.763C-1.001,-1.912 -0.866,-2.028 -0.702,-2.109C-0.544,-2.191 -0.375,-2.235 -0.192,-2.235C-0.149,-2.235 -0.106,-2.23 -0.058,-2.225C-0.009,-2.221 0.034,-2.21 0.083,-2.201L0,-1.772" style="fill-rule:nonzero;"/>
            </g>
            <g transform="matrix(7.92426,0,0,7.92426,1563.96,195.007)">
                <path d="M0,-0.468C0,-0.492 0.004,-0.516 0.009,-0.545C0.009,-0.573 0.015,-0.598 0.015,-0.627C0.015,-0.82 -0.044,-0.968 -0.154,-1.08C-0.27,-1.191 -0.419,-1.248 -0.613,-1.248C-0.829,-1.248 -1.017,-1.176 -1.182,-1.041C-1.345,-0.906 -1.471,-0.714 -1.556,-0.468L0,-0.468M0.375,-0.131L-1.639,-0.131C-1.648,-0.068 -1.657,-0.02 -1.657,0.013C-1.663,0.048 -1.663,0.076 -1.663,0.1C-1.663,0.322 -1.595,0.49 -1.46,0.607C-1.325,0.727 -1.137,0.784 -0.891,0.784C-0.709,0.784 -0.53,0.765 -0.362,0.722C-0.193,0.683 -0.034,0.621 0.11,0.534L0.028,0.963C-0.131,1.031 -0.295,1.074 -0.458,1.102C-0.622,1.132 -0.791,1.146 -0.959,1.146C-1.325,1.146 -1.609,1.059 -1.803,0.886C-2,0.713 -2.096,0.467 -2.096,0.144C-2.096,-0.126 -2.048,-0.381 -1.952,-0.617C-1.855,-0.853 -1.711,-1.065 -1.518,-1.253C-1.398,-1.368 -1.254,-1.455 -1.085,-1.518C-0.916,-1.581 -0.737,-1.614 -0.545,-1.614C-0.247,-1.614 -0.01,-1.523 0.169,-1.344C0.342,-1.166 0.434,-0.925 0.434,-0.627C0.434,-0.555 0.428,-0.477 0.419,-0.396C0.409,-0.309 0.395,-0.222 0.375,-0.131" style="fill-rule:nonzero;"/>
            </g>
            <g transform="matrix(7.92426,0,0,7.92426,1576.08,203.588)">
                <path d="M0,-3.661L0.434,-3.661L-0.279,0L-0.711,0L0,-3.661" style="fill-rule:nonzero;"/>
            </g>
            <g transform="matrix(7.92426,0,0,7.92426,1600.19,194.619)">
                <path d="M0,-0.37L-0.295,1.133L-0.728,1.133L-0.646,0.733C-0.776,0.892 -0.921,1.008 -1.085,1.085C-1.248,1.157 -1.426,1.195 -1.624,1.195C-1.85,1.195 -2.034,1.128 -2.177,0.993C-2.323,0.859 -2.39,0.685 -2.39,0.468C-2.39,0.16 -2.269,-0.081 -2.024,-0.259C-1.778,-0.438 -1.441,-0.529 -1.006,-0.529L-0.405,-0.529L-0.381,-0.644C-0.381,-0.654 -0.377,-0.669 -0.377,-0.683C-0.377,-0.698 -0.371,-0.722 -0.371,-0.755C-0.371,-0.895 -0.429,-1.006 -0.545,-1.083C-0.661,-1.16 -0.82,-1.199 -1.021,-1.199C-1.167,-1.199 -1.31,-1.179 -1.456,-1.141C-1.605,-1.102 -1.758,-1.05 -1.913,-0.982L-1.837,-1.382C-1.672,-1.439 -1.513,-1.488 -1.358,-1.516C-1.205,-1.545 -1.051,-1.565 -0.906,-1.565C-0.598,-1.565 -0.362,-1.497 -0.198,-1.362C-0.034,-1.227 0.048,-1.03 0.048,-0.775C0.048,-0.722 0.043,-0.659 0.034,-0.591C0.024,-0.519 0.014,-0.447 0,-0.37M-0.468,-0.192L-0.901,-0.192C-1.257,-0.192 -1.518,-0.143 -1.686,-0.047C-1.86,0.049 -1.941,0.194 -1.941,0.391C-1.941,0.531 -1.899,0.642 -1.811,0.719C-1.724,0.796 -1.605,0.834 -1.451,0.834C-1.219,0.834 -1.012,0.752 -0.837,0.584C-0.666,0.415 -0.545,0.189 -0.486,-0.096L-0.468,-0.192" style="fill-rule:nonzero;"/>
            </g>
            <g transform="matrix(7.92426,0,0,7.92426,1626,203.588)">
                <path d="M0,-2.635L-1.21,-1.344L-0.467,0L-0.963,0L-1.522,-1.045L-2.49,0L-3.01,0L-1.719,-1.388L-2.409,-2.635L-1.913,-2.635L-1.406,-1.681L-0.525,-2.635L0,-2.635" style="fill-rule:nonzero;"/>
            </g>
            <g transform="matrix(7.92426,0,0,7.92426,1641.02,199.666)">
                <path d="M0,-5.65L0.571,-5.65L-1.178,0L-1.749,0L0,-5.65" style="fill-rule:nonzero;"/>
            </g>
            <g transform="matrix(7.92426,0,0,7.92426,1656.01,158.705)">
                <path d="M0,3.964L2.368,3.964L2.368,4.535L-0.819,4.535L-0.819,3.964C-0.565,3.703 -0.214,3.345 0.235,2.89C0.674,2.443 0.957,2.154 1.074,2.024C1.293,1.782 1.445,1.576 1.528,1.404C1.611,1.239 1.659,1.067 1.659,0.902C1.659,0.64 1.562,0.42 1.377,0.255C1.191,0.09 0.95,-0 0.647,-0C0.434,-0 0.206,0.041 -0.028,0.11C-0.262,0.186 -0.516,0.296 -0.784,0.447L-0.784,-0.241C-0.509,-0.351 -0.255,-0.433 -0.021,-0.489C0.213,-0.544 0.434,-0.571 0.633,-0.571C1.149,-0.571 1.562,-0.44 1.871,-0.179C2.181,0.082 2.34,0.426 2.34,0.86C2.34,1.067 2.298,1.266 2.223,1.446C2.148,1.631 2.01,1.851 1.803,2.099C1.747,2.168 1.57,2.354 1.266,2.663C0.963,2.973 0.543,3.406 0,3.964" style="fill-rule:nonzero;"/>
            </g>
            <g transform="matrix(-7.92426,0,0,7.92426,974.95,235.34)">
                <path d="M-22.216,0L0,0" style="fill:none;fill-rule:nonzero;stroke:black;stroke-width:0.57px;stroke-linecap:round;stroke-linejoin:round;"/>
            </g>
            <g transform="matrix(7.92426,0,0,7.92426,1132.82,244.429)">
                <path d="M0,-2.294L2.294,-1.147L0,0L0,-2.294Z" style="fill-rule:nonzero;stroke:black;stroke-width:0.57px;stroke-linecap:round;stroke-linejoin:round;"/>
            </g>
            <g transform="matrix(7.92426,0,0,7.92426,993.132,226.252)">
                <path d="M0,2.294L-2.294,1.147L0,0L0,2.294Z" style="fill-rule:nonzero;stroke:black;stroke-width:0.57px;stroke-linecap:round;stroke-linejoin:round;"/>
            </g>
            <g transform="matrix(-7.92426,0,0,7.92426,1500.58,235.34)">
                <path d="M-22.216,0L0,0" style="fill:none;fill-rule:nonzero;stroke:black;stroke-width:0.57px;stroke-linecap:round;stroke-linejoin:round;"/>
            </g>
            <g transform="matrix(7.92426,0,0,7.92426,1658.43,244.429)">
                <path d="M0,-2.294L2.294,-1.147L0,0L0,-2.294Z" style="fill-rule:nonzero;stroke:black;stroke-width:0.57px;stroke-linecap:round;stroke-linejoin:round;"/>
            </g>
            <g transform="matrix(7.92426,0,0,7.92426,1518.74,226.252)">
                <path d="M0,2.294L-2.294,1.147L0,0L0,2.294Z" style="fill-rule:nonzero;stroke:black;stroke-width:0.57px;stroke-linecap:round;stroke-linejoin:round;"/>
            </g>
            <g transform="matrix(7.92426,0,0,7.92426,988.187,499.623)">
                <path d="M0,-27.792L-2.187,-27.792L-2.187,0L0,0" style="fill:none;fill-rule:nonzero;stroke:black;stroke-width:0.57px;stroke-linecap:round;stroke-linejoin:round;"/>
            </g>
            <g transform="matrix(7.92426,0,0,7.92426,1137.77,499.623)">
                <path d="M0,-27.792L2.187,-27.792L2.187,0L0,0" style="fill:none;fill-rule:nonzero;stroke:black;stroke-width:0.57px;stroke-linecap:round;stroke-linejoin:round;"/>
            </g>
            <g transform="matrix(7.92426,0,0,7.92426,1513.77,499.623)">
                <path d="M0,-27.792L-2.186,-27.792L-2.186,0L0,0" style="fill:none;fill-rule:nonzero;stroke:black;stroke-width:0.57px;stroke-linecap:round;stroke-linejoin:round;"/>
            </g>
            <g transform="matrix(7.92426,0,0,7.92426,1663.37,499.623)">
                <path d="M0,-27.792L2.188,-27.792L2.188,0L0,0" style="fill:none;fill-rule:nonzero;stroke:black;stroke-width:0.57px;stroke-linecap:round;stroke-linejoin:round;"/>
            </g>
            <g transform="matrix(-7.92426,0,0,7.92426,1202.48,561.4)">
                <path d="M-31.121,-8.258C-20.747,-0.001 -10.373,0 0,-8.258" style="fill:none;fill-rule:nonzero;stroke:black;stroke-width:0.57px;stroke-linecap:round;stroke-linejoin:round;"/>
            </g>
            <g transform="matrix(7.92426,0,0,7.92426,1425.23,513.021)">
                <path d="M0,-1.515L3.012,-2.153L1.715,0.638L0,-1.515Z" style="fill-rule:nonzero;stroke:black;stroke-width:0.57px;stroke-linecap:round;stroke-linejoin:round;"/>
            </g>
            <g transform="matrix(7.92426,0,0,7.92426,1212.75,495.97)">
                <path d="M0,2.791L-1.296,0L1.715,0.638L0,2.791Z" style="fill-rule:nonzero;stroke:black;stroke-width:0.57px;stroke-linecap:round;stroke-linejoin:round;"/>
            </g>
            <g transform="matrix(0,7.92426,7.92426,0,1334.43,267.953)">
                <path d="M-1.092,-1.092L1.092,-1.092" style="fill:none;fill-rule:nonzero;stroke:black;stroke-width:0.57px;stroke-linecap:round;stroke-linejoin:round;"/>
            </g>
            <g transform="matrix(7.92426,0,0,7.92426,1194.9,276.61)">
                <path d="M0,2.064L0,0L33.035,0L33.035,2.064" style="fill:none;fill-rule:nonzero;stroke:black;stroke-width:0.57px;stroke-linecap:round;stroke-linejoin:round;"/>
            </g>
            <g transform="matrix(0,7.92426,7.92426,0,1334.43,267.953)">
                <path d="M-1.092,-1.092L1.092,-1.092" style="fill:none;fill-rule:nonzero;stroke:black;stroke-width:0.57px;stroke-linecap:round;stroke-linejoin:round;"/>
            </g>
            <g transform="matrix(7.92426,0,0,7.92426,1260.34,276.61)">
                <path d="M0,2.064L0,0L16.517,0L16.517,2.064" style="fill:none;fill-rule:nonzero;stroke:black;stroke-width:0.57px;stroke-linecap:round;stroke-linejoin:round;"/>
            </g>
            <g transform="matrix(0,7.92426,7.92426,0,1334.43,267.953)">
                <path d="M-1.092,-1.092L1.092,-1.092" style="fill:none;fill-rule:nonzero;stroke:black;stroke-width:0.57px;stroke-linecap:round;stroke-linejoin:round;"/>
            </g>
            <g transform="matrix(7.92426,0,0,7.92426,1325.78,276.61)">
                <path d="M0,2.064L0,0L0,2.064" style="fill:none;fill-rule:nonzero;stroke:black;stroke-width:0.57px;stroke-linecap:round;stroke-linejoin:round;"/>
            </g>
            <g transform="matrix(7.92426,0,0,7.92426,1214.83,367.502)">
                <path d="M0,12.704L0.066,11.853L0.281,11.137L0.529,9.796L0.822,7.408L1.633,0.124L1.735,0L1.746,0.006L1.825,0.155L1.95,0.773L2.141,2.546L2.468,7.024L2.84,12.644L2.875,12.266L3.449,4.749L3.709,2.721L3.867,2.252L3.945,2.26L4.035,2.461L4.182,3.189L4.42,5.139L5.219,12.699L5.242,12.543C5.801,8.515 6.255,7.949 7.418,12.065L7.644,12.701L7.667,12.651C8.243,11.359 8.72,11.269 9.651,12.313L10.079,12.667L10.418,12.445L10.733,12.403L11.015,12.336L11.196,12.146L11.275,12.007L11.286,12.704" style="fill:none;fill-rule:nonzero;stroke:black;stroke-width:0.57px;stroke-linecap:square;stroke-linejoin:round;"/>
            </g>
            <g transform="matrix(7.92426,0,0,7.92426,1346.22,367.502)">
                <path d="M0,12.704L0.01,12.007L0.067,12.111L0.282,12.342L0.518,12.402L0.946,12.48L1.331,12.623L2.368,11.676L2.649,11.595L2.897,11.658L3.157,11.861L3.427,12.245L3.641,12.701L3.675,12.615C4.26,11.103 5.092,6.849 5.806,11.025L6.067,12.699L6.111,12.355L6.517,8.689L7.148,2.917L7.329,2.274L7.42,2.252L7.509,2.442L7.644,3.112L7.847,4.866L8.197,9.212L8.446,12.644L8.467,12.31L9.28,1.2L9.471,0.122L9.573,0L9.585,0.007L9.663,0.156L9.787,0.74L9.99,2.416L10.858,10.417L11.141,11.632L11.276,11.983L11.287,12.704" style="fill:none;fill-rule:nonzero;stroke:black;stroke-width:0.57px;stroke-linecap:square;stroke-linejoin:round;"/>
            </g>
            <g transform="matrix(7.92426,0,0,7.92426,-17.4163,468.171)">
                <path d="M108.705,0.132L228.59,-0" style="fill:none;fill-rule:nonzero;stroke:black;stroke-width:0.57px;stroke-linecap:square;stroke-linejoin:round;"/>
            </g>
        </g>
    </g>
</svg>
