<?xml version="1.0" encoding="UTF-8" standalone="no"?>
<svg
   xmlns:dc="http://purl.org/dc/elements/1.1/"
   xmlns:cc="http://creativecommons.org/ns#"
   xmlns:rdf="http://www.w3.org/1999/02/22-rdf-syntax-ns#"
   xmlns:svg="http://www.w3.org/2000/svg"
   xmlns="http://www.w3.org/2000/svg"
   viewBox="0 0 67.452598 81.176175"
   height="81.176178"
   width="67.452599"
   xml:space="preserve"
   id="svg2"
   version="1.1"><metadata
     id="metadata8"><rdf:RDF><cc:Work
         rdf:about=""><dc:format>image/svg+xml</dc:format><dc:type
           rdf:resource="http://purl.org/dc/dcmitype/StillImage" /><dc:title></dc:title></cc:Work></rdf:RDF></metadata><defs
     id="defs6"><clipPath
       id="clipPath18"
       clipPathUnits="userSpaceOnUse"><path
         id="path16"
         d="M 0,811.762 H 674.526 V 0 H 0 Z" /></clipPath></defs><g
     transform="matrix(1.3333333,0,0,-1.3333333,-415.95767,581.76261)"
     id="g10"><g
       transform="matrix(0.075,0,0,0.075,311.96826,375.43983)"
       id="g12"><g
         clip-path="url(#clipPath18)"
         id="g14"><g
           transform="translate(647.8096,133.8135)"
           id="g20"><path
             id="path22"
             style="fill:#f7ab15;fill-opacity:1;fill-rule:nonzero;stroke:none"
             d="M 0,0 -116.3,246.083 H -249.847 -383.393 L -499.693,0 c 0,0 -58.993,-106.187 38.767,-124.728 h 211.079 211.08 C 58.993,-106.187 0,0 0,0" /></g><g
           transform="translate(544.4844,630.7544)"
           id="g24"><path
             id="path26"
             style="fill:#f7ab15;fill-opacity:1;fill-rule:nonzero;stroke:none"
             d="m 0,0 h -296.297 l -75.201,150.095 c -5.022,10.024 2.266,21.826 13.477,21.826 H 61.725 c 11.211,0 18.499,-11.802 13.476,-21.826 z" /></g><g
           transform="translate(187.7529,18.1719)"
           id="g28"><path
             id="path30"
             style="fill:#1a323d;fill-opacity:1;fill-rule:nonzero;stroke:none"
             d="m 0,0 h 420.421 c 22.025,4.341 36.637,13.872 43.43,28.336 15.484,32.968 -11.467,82.405 -11.741,82.901 l -0.269,0.523 -113.838,240.879 H 82.419 L -31.549,111.49 -31.694,111.229 C -31.963,110.741 -58.915,61.304 -43.43,28.336 -36.637,13.872 -22.026,4.341 0,0 M 422.144,-18.172 H -1.723 l -0.84,0.159 c -28.561,5.417 -47.853,18.429 -57.34,38.677 -18.91,40.362 9.515,94.239 12.172,99.111 l 118.64,251.036 h 278.604 l 118.64,-251.038 c 2.659,-4.877 31.078,-58.75 12.17,-99.109 -9.486,-20.248 -28.779,-33.26 -57.34,-38.677 z" /></g><g
           transform="translate(253.7974,639.8408)"
           id="g32"><path
             id="path34"
             style="fill:#1a323d;fill-opacity:1;fill-rule:nonzero;stroke:none"
             d="m 0,0 h 285.078 l 72.687,145.078 c 1.35,2.696 0.27,4.975 -0.258,5.829 -0.529,0.855 -2.082,2.842 -5.095,2.842 H -67.335 c -3.015,0 -4.566,-1.987 -5.094,-2.842 -0.528,-0.854 -1.61,-3.133 -0.259,-5.829 z M 296.298,-18.172 H -11.221 l -77.713,155.11 c -3.78,7.546 -3.39,16.336 1.044,23.517 4.433,7.179 12.118,11.466 20.555,11.466 h 419.747 c 8.439,0 16.123,-4.287 20.556,-11.467 4.434,-7.181 4.824,-15.971 1.043,-23.516 z" /></g><g
           transform="translate(229.9526,546.3311)"
           id="g36"><path
             id="path38"
             style="fill:#2b98be;fill-opacity:1;fill-rule:nonzero;stroke:none"
             d="m 0,0 v -74.956 h 327.079 l 4.543,84.042 z" /></g><g
           transform="translate(216.5942,554.3784)"
           id="g40"><path
             id="path42"
             style="fill:#2b98be;fill-opacity:1;fill-rule:nonzero;stroke:none"
             d="m 0,0 c 8.265,-4.091 13.719,-12.261 13.719,-21.482 v 0 h 332.045 v 0 c 0,9.221 5.454,17.391 13.72,21.482 13.591,6.727 22.904,20.908 22.506,37.113 -0.541,22.012 -19.242,39.263 -41.261,39.263 H 18.754 c -22.018,0 -40.719,-17.251 -41.26,-39.263 C -22.905,20.908 -13.591,6.727 0,0" /></g><g
           transform="translate(576.0781,456.2729)"
           id="g44"><path
             id="path46"
             style="fill:#2b98be;fill-opacity:1;fill-rule:nonzero;stroke:none"
             d="m 0,0 c -8.266,4.09 -13.72,12.261 -13.72,21.482 v -10e-4 h -332.045 c 0,-9.221 -5.454,-17.391 -13.719,-21.481 -13.591,-6.727 -22.905,-20.91 -22.506,-37.115 0.542,-22.012 19.243,-39.261 41.261,-39.261 h 321.973 c 22.019,0 40.719,17.249 41.262,39.261 C 22.904,-20.91 13.591,-6.727 0,0" /></g><g
           transform="translate(238.104,541.9824)"
           id="g48"><path
             id="path50"
             style="fill:#1a323d;fill-opacity:1;fill-rule:nonzero;stroke:none"
             d="m 0,0 316.465,-0.001 c 2.56,8.766 8.785,16.236 17.479,20.54 10.899,5.395 17.749,16.678 17.452,28.746 -0.411,16.764 -14.846,30.402 -32.177,30.402 H -2.754 c -17.331,0 -31.767,-13.638 -32.179,-30.402 C -35.23,37.218 -28.379,25.934 -17.48,20.539 -8.785,16.235 -2.563,8.764 0,0 m -7.79,-18.173 h -9.085 v 9.086 c 0,5.583 -3.321,10.695 -8.665,13.341 -17.211,8.518 -28.029,26.37 -27.559,45.478 0.653,26.537 23.238,48.126 50.345,48.126 h 321.973 c 27.107,0 49.691,-21.589 50.344,-48.126 0.47,-19.109 -10.348,-36.96 -27.56,-45.478 -5.343,-2.646 -8.664,-7.757 -8.664,-13.34 v -9.086 z" /></g><g
           transform="translate(238.104,468.6689)"
           id="g52"><path
             id="path54"
             style="fill:#1a323d;fill-opacity:1;fill-rule:nonzero;stroke:none"
             d="m 0,0 c -2.563,-8.764 -8.784,-16.235 -17.479,-20.54 -10.899,-5.394 -17.751,-16.679 -17.454,-28.748 0.413,-16.762 14.849,-30.399 32.179,-30.399 h 321.972 c 17.33,0 31.767,13.637 32.178,30.399 0.299,12.069 -6.553,23.354 -17.452,28.748 C 325.25,-16.236 319.027,-8.764 316.465,0 Z M 319.218,-97.858 H -2.754 c -27.106,0 -49.691,21.587 -50.345,48.123 -0.47,19.11 10.348,36.963 27.559,45.481 5.345,2.646 8.665,7.756 8.665,13.339 v 9.087 H 333.339 V 9.085 c 0,-5.583 3.321,-10.693 8.664,-13.339 17.213,-8.518 28.031,-26.371 27.56,-45.481 -0.653,-26.536 -23.238,-48.123 -50.345,-48.123" /></g><g
           transform="translate(57.9521,327.3779)"
           id="g56"><path
             id="path58"
             style="fill:#1a323d;fill-opacity:1;fill-rule:nonzero;stroke:none"
             d="m 0,0 c -0.73,0 -1.472,0.089 -2.213,0.274 -4.867,1.218 -7.827,6.153 -6.607,11.02 13.249,52.935 65.563,95.25 103.762,126.148 5.453,4.412 10.605,8.579 15.219,12.443 3.846,3.22 9.576,2.713 12.799,-1.135 3.221,-3.848 2.712,-9.577 -1.135,-12.799 -4.732,-3.961 -9.941,-8.175 -15.456,-12.637 C 70.164,94.029 20.581,53.922 8.806,6.882 7.773,2.755 4.07,0 0,0" /></g><g
           transform="translate(199.8247,496.3926)"
           id="g60"><path
             id="path62"
             style="fill:#1a323d;fill-opacity:1;fill-rule:nonzero;stroke:none"
             d="m 0,0 c -3.062,0 -6.049,1.547 -7.761,4.35 -2.616,4.282 -1.266,9.874 3.015,12.49 4.311,2.633 6.824,4.034 6.928,4.093 l 2.06,1.147 h 353.992 c 5.017,0 9.086,-4.068 9.086,-9.086 0,-5.017 -4.069,-9.086 -9.086,-9.086 H 9.028 C 7.971,3.29 6.518,2.427 4.729,1.334 3.25,0.431 1.614,0 0,0" /></g><g
           transform="translate(9.0879,430.749)"
           id="g64"><path
             id="path66"
             style="fill:#1a323d;fill-opacity:1;fill-rule:nonzero;stroke:none"
             d="m 0,0 c -1.003,0 -2.021,0.167 -3.021,0.52 -4.733,1.668 -7.217,6.857 -5.547,11.589 11.205,31.778 53.997,54.361 127.186,67.12 4.948,0.869 9.65,-2.447 10.511,-7.39 0.862,-4.943 -2.446,-9.649 -7.39,-10.51 C 57.368,50.105 17.177,30.48 8.568,6.066 7.252,2.334 3.745,0 0,0" /></g><g
           transform="translate(199.377,499.96)"
           id="g68"><path
             id="path70"
             style="fill:#1a323d;fill-opacity:1;fill-rule:nonzero;stroke:none"
             d="m 0,0 c -4.788,0 -8.795,3.743 -9.063,8.582 -0.279,5.01 3.556,9.296 8.567,9.575 4.6,0.256 27.617,0.345 30.226,0.356 h 0.034 c 5.001,0 9.066,-4.047 9.085,-9.054 C 38.866,4.441 34.813,0.359 29.795,0.341 19.737,0.305 3.638,0.188 0.512,0.015 0.34,0.005 0.17,0 0,0" /></g><g
           transform="translate(199.9072,503.0488)"
           id="g72"><path
             id="path74"
             style="fill:#2b98be;fill-opacity:1;fill-rule:nonzero;stroke:none"
             d="m 0,0 c 0,-19.511 -15.832,-35.342 -35.365,-35.342 -4.703,0 -9.2,0.931 -13.31,2.589 -12.334,5.02 -21.193,16.809 -21.965,30.732 -0.046,0.659 -0.068,1.34 -0.068,2.021 0,19.534 15.831,35.366 35.343,35.366 17.489,0 32.004,-12.697 34.843,-29.369 C -0.295,4.839 -0.159,3.635 -0.091,2.431 -0.023,1.636 0,0.818 0,0" /></g><g
           transform="translate(164.5405,529.3291)"
           id="g76"><path
             id="path78"
             style="fill:#1a323d;fill-opacity:1;fill-rule:nonzero;stroke:none"
             d="m 0,0 c -14.477,0 -26.256,-11.789 -26.256,-26.28 0,-0.481 0.016,-0.952 0.047,-1.404 l 0.006,-0.115 c 0.559,-10.055 6.964,-19.012 16.318,-22.819 3.148,-1.27 6.483,-1.918 9.885,-1.918 14.491,0 26.28,11.778 26.28,26.256 0,0.662 -0.018,1.203 -0.056,1.652 l -0.02,0.264 c -0.049,0.863 -0.141,1.647 -0.275,2.33 l -0.042,0.225 C 23.735,-9.172 12.849,0 0,0 m 0,-70.708 c -5.742,0 -11.363,1.094 -16.708,3.249 -15.836,6.445 -26.668,21.586 -27.634,38.597 -0.056,0.842 -0.085,1.711 -0.085,2.582 0,24.51 19.93,44.452 44.427,44.452 21.699,0 40.094,-15.479 43.782,-36.82 0.274,-1.426 0.461,-2.957 0.557,-4.559 0.077,-0.935 0.113,-1.941 0.113,-3.073 0,-24.497 -19.941,-44.428 -44.452,-44.428" /></g><path
           id="path80"
           style="fill:#1a323d;fill-opacity:1;fill-rule:nonzero;stroke:none"
           d="m 239.4,477.754 h -18.171 v 55.141 H 239.4 Z" /><path
           id="path82"
           style="fill:#1a323d;fill-opacity:1;fill-rule:nonzero;stroke:none"
           d="m 571.443,477.754 h -18.17 v 55.141 h 18.17 z" /></g></g><text
       y="-385.08978"
       x="330.22128"
       id="text86"
       style="font-variant:normal;font-weight:normal;font-stretch:normal;font-size:10.35000038px;font-family:'Bitstream Vera Sans';-inkscape-font-specification:BitstreamVeraSans-Roman;writing-mode:lr-tb;fill:#1a323d;fill-opacity:1;fill-rule:nonzero;stroke:none;stroke-width:0.075"
       transform="scale(1,-1)"><tspan
         style="stroke-width:0.075"
         id="tspan84"
         y="-385.08978"
         x="330.22128 337.96307 346.89514">NMR</tspan></text>
</g></svg>
