<?xml version="1.0" encoding="UTF-8" standalone="no"?>
<!DOCTYPE svg PUBLIC "-//W3C//DTD SVG 1.1//EN" "http://www.w3.org/Graphics/SVG/1.1/DTD/svg11.dtd">
<svg width="100%" height="100%" viewBox="0 0 1000 600" version="1.1" xmlns="http://www.w3.org/2000/svg" xmlns:xlink="http://www.w3.org/1999/xlink" xml:space="preserve" xmlns:serif="http://www.serif.com/" style="fill-rule:evenodd;clip-rule:evenodd;stroke-linecap:square;stroke-linejoin:round;stroke-miterlimit:10;">
    <g transform="matrix(1.02041,0,0,0.882353,-20.4082,-17.6471)">
        <path d="M1000,96.836C1000,54.429 970.229,20 933.559,20L86.441,20C49.771,20 20,54.429 20,96.836L20,623.164C20,665.571 49.771,700 86.441,700L933.559,700C970.229,700 1000,665.571 1000,623.164L1000,96.836Z" style="fill:white;"/>
    </g>
    <g transform="matrix(1,0,0,1,-1.75,-55)">
        <g transform="matrix(1,0,0,1,489.318,-221.257)">
            <text x="221.141px" y="334.359px" style="font-family:'Arial-BoldMT', 'Arial', sans-serif;font-weight:700;font-size:48px;fill:rgb(24,25,26);">CEST</text>
        </g>
        <g transform="matrix(1,0,0,1,-61.7564,-222.815)">
            <text x="218.79px" y="334.359px" style="font-family:'Arial-BoldMT', 'Arial', sans-serif;font-weight:700;font-size:48px;fill:rgb(24,25,26);">CPMG</text>
        </g>
        <g transform="matrix(1.13262,0,0,1.13262,-51.9672,59.4279)">
            <g transform="matrix(1,0,0,1,11.9,29.7908)">
                <path d="M66.31,64.548L75.02,57.123L83.731,53.718L92.441,70.029L101.151,65.426L109.861,52.985L118.572,49.467L127.282,48.97L135.992,50.705L144.702,54.677L153.413,61.04L162.123,69.89L170.833,80.263L179.543,90.662L188.254,101.273L196.964,111.673L205.674,121.418L214.384,130.541L223.095,139.288L231.805,146.978L240.515,154.657L249.225,161.65L257.936,168.102L266.646,174.193L275.356,179.571L284.066,184.466L292.777,188.798L301.487,192.747L310.197,196.355L318.907,199.692L327.618,202.829L336.328,205.699L345.038,208.422L353.748,210.897L362.459,213.268L371.169,215.396L379.879,217.529L388.589,219.311L397.3,221.256L406.01,222.755" style="fill:none;fill-rule:nonzero;stroke:rgb(229,115,115);stroke-width:2.65px;"/>
            </g>
            <g>
                <g transform="matrix(0,-1,-1,0,204.284,224.332)">
                    <path d="M-39.168,134.784L154.368,134.784" style="fill:none;fill-rule:nonzero;stroke:black;stroke-width:3.53px;stroke-linejoin:miter;"/>
                </g>
                <g transform="matrix(0,-1,-1,0,561.404,581.452)">
                    <path d="M317.952,134.784L511.488,134.784" style="fill:none;fill-rule:nonzero;stroke:black;stroke-width:3.53px;stroke-linejoin:miter;"/>
                </g>
                <g transform="matrix(1,0,0,1,11.9,225.484)">
                    <path d="M57.6,38.016L414.72,38.016" style="fill:none;fill-rule:nonzero;stroke:black;stroke-width:3.53px;stroke-linejoin:miter;"/>
                </g>
                <g transform="matrix(1,0,0,1,11.9,-161.588)">
                    <path d="M57.6,231.552L414.72,231.552" style="fill:none;fill-rule:nonzero;stroke:black;stroke-width:3.53px;stroke-linejoin:miter;"/>
                </g>
            </g>
            <g>
                <g transform="matrix(3,0,0,3,78.2102,97.0841)">
                    <path d="M0,1.5C0.398,1.5 0.779,1.342 1.061,1.061C1.342,0.779 1.5,0.398 1.5,0C1.5,-0.398 1.342,-0.779 1.061,-1.061C0.779,-1.342 0.398,-1.5 0,-1.5C-0.398,-1.5 -0.779,-1.342 -1.061,-1.061C-1.342,-0.779 -1.5,-0.398 -1.5,0C-1.5,0.398 -1.342,0.779 -1.061,1.061C-0.779,1.342 -0.398,1.5 0,1.5Z" style="fill:rgb(211,47,47);fill-rule:nonzero;stroke:rgb(211,47,47);stroke-width:0.29px;stroke-linecap:butt;"/>
                </g>
                <g transform="matrix(3,0,0,3,78.2102,97.6974)">
                    <path d="M0,1.5C0.398,1.5 0.779,1.342 1.061,1.061C1.342,0.779 1.5,0.398 1.5,0C1.5,-0.398 1.342,-0.779 1.061,-1.061C0.779,-1.342 0.398,-1.5 0,-1.5C-0.398,-1.5 -0.779,-1.342 -1.061,-1.061C-1.342,-0.779 -1.5,-0.398 -1.5,0C-1.5,0.398 -1.342,0.779 -1.061,1.061C-0.779,1.342 -0.398,1.5 0,1.5Z" style="fill:rgb(211,47,47);fill-rule:nonzero;stroke:rgb(211,47,47);stroke-width:0.29px;stroke-linecap:butt;"/>
                </g>
                <g transform="matrix(3,0,0,3,86.9205,91.0168)">
                    <path d="M0,1.5C0.398,1.5 0.779,1.342 1.061,1.061C1.342,0.779 1.5,0.398 1.5,0C1.5,-0.398 1.342,-0.779 1.061,-1.061C0.779,-1.342 0.398,-1.5 0,-1.5C-0.398,-1.5 -0.779,-1.342 -1.061,-1.061C-1.342,-0.779 -1.5,-0.398 -1.5,0C-1.5,0.398 -1.342,0.779 -1.061,1.061C-0.779,1.342 -0.398,1.5 0,1.5Z" style="fill:rgb(211,47,47);fill-rule:nonzero;stroke:rgb(211,47,47);stroke-width:0.29px;stroke-linecap:butt;"/>
                </g>
                <g transform="matrix(3,0,0,3,86.9205,89.1524)">
                    <path d="M0,1.5C0.398,1.5 0.779,1.342 1.061,1.061C1.342,0.779 1.5,0.398 1.5,0C1.5,-0.398 1.342,-0.779 1.061,-1.061C0.779,-1.342 0.398,-1.5 0,-1.5C-0.398,-1.5 -0.779,-1.342 -1.061,-1.061C-1.342,-0.779 -1.5,-0.398 -1.5,0C-1.5,0.398 -1.342,0.779 -1.061,1.061C-0.779,1.342 -0.398,1.5 0,1.5Z" style="fill:rgb(211,47,47);fill-rule:nonzero;stroke:rgb(211,47,47);stroke-width:0.29px;stroke-linecap:butt;"/>
                </g>
                <g transform="matrix(3,0,0,3,95.6307,86.8652)">
                    <path d="M0,1.5C0.398,1.5 0.779,1.342 1.061,1.061C1.342,0.779 1.5,0.398 1.5,0C1.5,-0.398 1.342,-0.779 1.061,-1.061C0.779,-1.342 0.398,-1.5 0,-1.5C-0.398,-1.5 -0.779,-1.342 -1.061,-1.061C-1.342,-0.779 -1.5,-0.398 -1.5,0C-1.5,0.398 -1.342,0.779 -1.061,1.061C-0.779,1.342 -0.398,1.5 0,1.5Z" style="fill:rgb(211,47,47);fill-rule:nonzero;stroke:rgb(211,47,47);stroke-width:0.29px;stroke-linecap:butt;"/>
                </g>
                <g transform="matrix(3,0,0,3,104.341,102.681)">
                    <path d="M0,1.5C0.398,1.5 0.779,1.342 1.061,1.061C1.342,0.779 1.5,0.398 1.5,0C1.5,-0.398 1.342,-0.779 1.061,-1.061C0.779,-1.342 0.398,-1.5 0,-1.5C-0.398,-1.5 -0.779,-1.342 -1.061,-1.061C-1.342,-0.779 -1.5,-0.398 -1.5,0C-1.5,0.398 -1.342,0.779 -1.061,1.061C-0.779,1.342 -0.398,1.5 0,1.5Z" style="fill:rgb(211,47,47);fill-rule:nonzero;stroke:rgb(211,47,47);stroke-width:0.29px;stroke-linecap:butt;"/>
                </g>
                <g transform="matrix(3,0,0,3,113.051,98.208)">
                    <path d="M0,1.5C0.398,1.5 0.779,1.342 1.061,1.061C1.342,0.779 1.5,0.398 1.5,0C1.5,-0.398 1.342,-0.779 1.061,-1.061C0.779,-1.342 0.398,-1.5 0,-1.5C-0.398,-1.5 -0.779,-1.342 -1.061,-1.061C-1.342,-0.779 -1.5,-0.398 -1.5,0C-1.5,0.398 -1.342,0.779 -1.061,1.061C-0.779,1.342 -0.398,1.5 0,1.5Z" style="fill:rgb(211,47,47);fill-rule:nonzero;stroke:rgb(211,47,47);stroke-width:0.29px;stroke-linecap:butt;"/>
                </g>
                <g transform="matrix(3,0,0,3,121.761,86.2398)">
                    <path d="M0,1.5C0.398,1.5 0.779,1.342 1.061,1.061C1.342,0.779 1.5,0.398 1.5,0C1.5,-0.398 1.342,-0.779 1.061,-1.061C0.779,-1.342 0.398,-1.5 0,-1.5C-0.398,-1.5 -0.779,-1.342 -1.061,-1.061C-1.342,-0.779 -1.5,-0.398 -1.5,0C-1.5,0.398 -1.342,0.779 -1.061,1.061C-0.779,1.342 -0.398,1.5 0,1.5Z" style="fill:rgb(211,47,47);fill-rule:nonzero;stroke:rgb(211,47,47);stroke-width:0.29px;stroke-linecap:butt;"/>
                </g>
                <g transform="matrix(3,0,0,3,130.472,85.1958)">
                    <path d="M0,1.5C0.398,1.5 0.779,1.342 1.061,1.061C1.342,0.779 1.5,0.398 1.5,0C1.5,-0.398 1.342,-0.779 1.061,-1.061C0.779,-1.342 0.398,-1.5 0,-1.5C-0.398,-1.5 -0.779,-1.342 -1.061,-1.061C-1.342,-0.779 -1.5,-0.398 -1.5,0C-1.5,0.398 -1.342,0.779 -1.061,1.061C-0.779,1.342 -0.398,1.5 0,1.5Z" style="fill:rgb(211,47,47);fill-rule:nonzero;stroke:rgb(211,47,47);stroke-width:0.29px;stroke-linecap:butt;"/>
                </g>
                <g transform="matrix(3,0,0,3,139.182,84.1499)">
                    <path d="M0,1.5C0.398,1.5 0.779,1.342 1.061,1.061C1.342,0.779 1.5,0.398 1.5,0C1.5,-0.398 1.342,-0.779 1.061,-1.061C0.779,-1.342 0.398,-1.5 0,-1.5C-0.398,-1.5 -0.779,-1.342 -1.061,-1.061C-1.342,-0.779 -1.5,-0.398 -1.5,0C-1.5,0.398 -1.342,0.779 -1.061,1.061C-0.779,1.342 -0.398,1.5 0,1.5Z" style="fill:rgb(211,47,47);fill-rule:nonzero;stroke:rgb(211,47,47);stroke-width:0.29px;stroke-linecap:butt;"/>
                </g>
                <g transform="matrix(3,0,0,3,147.892,85.4048)">
                    <path d="M0,1.5C0.398,1.5 0.779,1.342 1.061,1.061C1.342,0.779 1.5,0.398 1.5,0C1.5,-0.398 1.342,-0.779 1.061,-1.061C0.779,-1.342 0.398,-1.5 0,-1.5C-0.398,-1.5 -0.779,-1.342 -1.061,-1.061C-1.342,-0.779 -1.5,-0.398 -1.5,0C-1.5,0.398 -1.342,0.779 -1.061,1.061C-0.779,1.342 -0.398,1.5 0,1.5Z" style="fill:rgb(211,47,47);fill-rule:nonzero;stroke:rgb(211,47,47);stroke-width:0.29px;stroke-linecap:butt;"/>
                </g>
                <g transform="matrix(3,0,0,3,156.602,89.2562)">
                    <path d="M0,1.5C0.398,1.5 0.779,1.342 1.061,1.061C1.342,0.779 1.5,0.398 1.5,0C1.5,-0.398 1.342,-0.779 1.061,-1.061C0.779,-1.342 0.398,-1.5 0,-1.5C-0.398,-1.5 -0.779,-1.342 -1.061,-1.061C-1.342,-0.779 -1.5,-0.398 -1.5,0C-1.5,0.398 -1.342,0.779 -1.061,1.061C-0.779,1.342 -0.398,1.5 0,1.5Z" style="fill:rgb(211,47,47);fill-rule:nonzero;stroke:rgb(211,47,47);stroke-width:0.29px;stroke-linecap:butt;"/>
                </g>
                <g transform="matrix(3,0,0,3,165.313,94.8295)">
                    <path d="M0,1.5C0.398,1.5 0.779,1.342 1.061,1.061C1.342,0.779 1.5,0.398 1.5,0C1.5,-0.398 1.342,-0.779 1.061,-1.061C0.779,-1.342 0.398,-1.5 0,-1.5C-0.398,-1.5 -0.779,-1.342 -1.061,-1.061C-1.342,-0.779 -1.5,-0.398 -1.5,0C-1.5,0.398 -1.342,0.779 -1.061,1.061C-0.779,1.342 -0.398,1.5 0,1.5Z" style="fill:rgb(211,47,47);fill-rule:nonzero;stroke:rgb(211,47,47);stroke-width:0.29px;stroke-linecap:butt;"/>
                </g>
                <g transform="matrix(3,0,0,3,174.023,102.883)">
                    <path d="M0,1.5C0.398,1.5 0.779,1.342 1.061,1.061C1.342,0.779 1.5,0.398 1.5,0C1.5,-0.398 1.342,-0.779 1.061,-1.061C0.779,-1.342 0.398,-1.5 0,-1.5C-0.398,-1.5 -0.779,-1.342 -1.061,-1.061C-1.342,-0.779 -1.5,-0.398 -1.5,0C-1.5,0.398 -1.342,0.779 -1.061,1.061C-0.779,1.342 -0.398,1.5 0,1.5Z" style="fill:rgb(211,47,47);fill-rule:nonzero;stroke:rgb(211,47,47);stroke-width:0.29px;stroke-linecap:butt;"/>
                </g>
                <g transform="matrix(3,0,0,3,191.443,121.982)">
                    <path d="M0,1.5C0.398,1.5 0.779,1.342 1.061,1.061C1.342,0.779 1.5,0.398 1.5,0C1.5,-0.398 1.342,-0.779 1.061,-1.061C0.779,-1.342 0.398,-1.5 0,-1.5C-0.398,-1.5 -0.779,-1.342 -1.061,-1.061C-1.342,-0.779 -1.5,-0.398 -1.5,0C-1.5,0.398 -1.342,0.779 -1.061,1.061C-0.779,1.342 -0.398,1.5 0,1.5Z" style="fill:rgb(211,47,47);fill-rule:nonzero;stroke:rgb(211,47,47);stroke-width:0.29px;stroke-linecap:butt;"/>
                </g>
                <g transform="matrix(3,0,0,3,208.864,144.402)">
                    <path d="M0,1.5C0.398,1.5 0.779,1.342 1.061,1.061C1.342,0.779 1.5,0.398 1.5,0C1.5,-0.398 1.342,-0.779 1.061,-1.061C0.779,-1.342 0.398,-1.5 0,-1.5C-0.398,-1.5 -0.779,-1.342 -1.061,-1.061C-1.342,-0.779 -1.5,-0.398 -1.5,0C-1.5,0.398 -1.342,0.779 -1.061,1.061C-0.779,1.342 -0.398,1.5 0,1.5Z" style="fill:rgb(211,47,47);fill-rule:nonzero;stroke:rgb(211,47,47);stroke-width:0.29px;stroke-linecap:butt;"/>
                </g>
                <g transform="matrix(3,0,0,3,226.284,163.777)">
                    <path d="M0,1.5C0.398,1.5 0.779,1.342 1.061,1.061C1.342,0.779 1.5,0.398 1.5,0C1.5,-0.398 1.342,-0.779 1.061,-1.061C0.779,-1.342 0.398,-1.5 0,-1.5C-0.398,-1.5 -0.779,-1.342 -1.061,-1.061C-1.342,-0.779 -1.5,-0.398 -1.5,0C-1.5,0.398 -1.342,0.779 -1.061,1.061C-0.779,1.342 -0.398,1.5 0,1.5Z" style="fill:rgb(211,47,47);fill-rule:nonzero;stroke:rgb(211,47,47);stroke-width:0.29px;stroke-linecap:butt;"/>
                </g>
                <g transform="matrix(3,0,0,3,243.705,180.829)">
                    <path d="M0,1.5C0.398,1.5 0.779,1.342 1.061,1.061C1.342,0.779 1.5,0.398 1.5,0C1.5,-0.398 1.342,-0.779 1.061,-1.061C0.779,-1.342 0.398,-1.5 0,-1.5C-0.398,-1.5 -0.779,-1.342 -1.061,-1.061C-1.342,-0.779 -1.5,-0.398 -1.5,0C-1.5,0.398 -1.342,0.779 -1.061,1.061C-0.779,1.342 -0.398,1.5 0,1.5Z" style="fill:rgb(211,47,47);fill-rule:nonzero;stroke:rgb(211,47,47);stroke-width:0.29px;stroke-linecap:butt;"/>
                </g>
                <g transform="matrix(3,0,0,3,261.125,194.892)">
                    <path d="M0,1.5C0.398,1.5 0.779,1.342 1.061,1.061C1.342,0.779 1.5,0.398 1.5,0C1.5,-0.398 1.342,-0.779 1.061,-1.061C0.779,-1.342 0.398,-1.5 0,-1.5C-0.398,-1.5 -0.779,-1.342 -1.061,-1.061C-1.342,-0.779 -1.5,-0.398 -1.5,0C-1.5,0.398 -1.342,0.779 -1.061,1.061C-0.779,1.342 -0.398,1.5 0,1.5Z" style="fill:rgb(211,47,47);fill-rule:nonzero;stroke:rgb(211,47,47);stroke-width:0.29px;stroke-linecap:butt;"/>
                </g>
                <g transform="matrix(3,0,0,3,278.546,203.566)">
                    <path d="M0,1.5C0.398,1.5 0.779,1.342 1.061,1.061C1.342,0.779 1.5,0.398 1.5,0C1.5,-0.398 1.342,-0.779 1.061,-1.061C0.779,-1.342 0.398,-1.5 0,-1.5C-0.398,-1.5 -0.779,-1.342 -1.061,-1.061C-1.342,-0.779 -1.5,-0.398 -1.5,0C-1.5,0.398 -1.342,0.779 -1.061,1.061C-0.779,1.342 -0.398,1.5 0,1.5Z" style="fill:rgb(211,47,47);fill-rule:nonzero;stroke:rgb(211,47,47);stroke-width:0.29px;stroke-linecap:butt;"/>
                </g>
                <g transform="matrix(3,0,0,3,295.966,217.81)">
                    <path d="M0,1.5C0.398,1.5 0.779,1.342 1.061,1.061C1.342,0.779 1.5,0.398 1.5,0C1.5,-0.398 1.342,-0.779 1.061,-1.061C0.779,-1.342 0.398,-1.5 0,-1.5C-0.398,-1.5 -0.779,-1.342 -1.061,-1.061C-1.342,-0.779 -1.5,-0.398 -1.5,0C-1.5,0.398 -1.342,0.779 -1.061,1.061C-0.779,1.342 -0.398,1.5 0,1.5Z" style="fill:rgb(211,47,47);fill-rule:nonzero;stroke:rgb(211,47,47);stroke-width:0.29px;stroke-linecap:butt;"/>
                </g>
                <g transform="matrix(3,0,0,3,313.387,222.722)">
                    <path d="M0,1.5C0.398,1.5 0.779,1.342 1.061,1.061C1.342,0.779 1.5,0.398 1.5,0C1.5,-0.398 1.342,-0.779 1.061,-1.061C0.779,-1.342 0.398,-1.5 0,-1.5C-0.398,-1.5 -0.779,-1.342 -1.061,-1.061C-1.342,-0.779 -1.5,-0.398 -1.5,0C-1.5,0.398 -1.342,0.779 -1.061,1.061C-0.779,1.342 -0.398,1.5 0,1.5Z" style="fill:rgb(211,47,47);fill-rule:nonzero;stroke:rgb(211,47,47);stroke-width:0.29px;stroke-linecap:butt;"/>
                </g>
                <g transform="matrix(3,0,0,3,330.807,231.296)">
                    <path d="M0,1.5C0.398,1.5 0.779,1.342 1.061,1.061C1.342,0.779 1.5,0.398 1.5,0C1.5,-0.398 1.342,-0.779 1.061,-1.061C0.779,-1.342 0.398,-1.5 0,-1.5C-0.398,-1.5 -0.779,-1.342 -1.061,-1.061C-1.342,-0.779 -1.5,-0.398 -1.5,0C-1.5,0.398 -1.342,0.779 -1.061,1.061C-0.779,1.342 -0.398,1.5 0,1.5Z" style="fill:rgb(211,47,47);fill-rule:nonzero;stroke:rgb(211,47,47);stroke-width:0.29px;stroke-linecap:butt;"/>
                </g>
                <g transform="matrix(3,0,0,3,348.228,237.124)">
                    <path d="M0,1.5C0.398,1.5 0.779,1.342 1.061,1.061C1.342,0.779 1.5,0.398 1.5,0C1.5,-0.398 1.342,-0.779 1.061,-1.061C0.779,-1.342 0.398,-1.5 0,-1.5C-0.398,-1.5 -0.779,-1.342 -1.061,-1.061C-1.342,-0.779 -1.5,-0.398 -1.5,0C-1.5,0.398 -1.342,0.779 -1.061,1.061C-0.779,1.342 -0.398,1.5 0,1.5Z" style="fill:rgb(211,47,47);fill-rule:nonzero;stroke:rgb(211,47,47);stroke-width:0.29px;stroke-linecap:butt;"/>
                </g>
                <g transform="matrix(3,0,0,3,383.069,247.976)">
                    <path d="M0,1.5C0.398,1.5 0.779,1.342 1.061,1.061C1.342,0.779 1.5,0.398 1.5,0C1.5,-0.398 1.342,-0.779 1.061,-1.061C0.779,-1.342 0.398,-1.5 0,-1.5C-0.398,-1.5 -0.779,-1.342 -1.061,-1.061C-1.342,-0.779 -1.5,-0.398 -1.5,0C-1.5,0.398 -1.342,0.779 -1.061,1.061C-0.779,1.342 -0.398,1.5 0,1.5Z" style="fill:rgb(211,47,47);fill-rule:nonzero;stroke:rgb(211,47,47);stroke-width:0.29px;stroke-linecap:butt;"/>
                </g>
                <g transform="matrix(3,0,0,3,383.069,248.599)">
                    <path d="M0,1.5C0.398,1.5 0.779,1.342 1.061,1.061C1.342,0.779 1.5,0.398 1.5,0C1.5,-0.398 1.342,-0.779 1.061,-1.061C0.779,-1.342 0.398,-1.5 0,-1.5C-0.398,-1.5 -0.779,-1.342 -1.061,-1.061C-1.342,-0.779 -1.5,-0.398 -1.5,0C-1.5,0.398 -1.342,0.779 -1.061,1.061C-0.779,1.342 -0.398,1.5 0,1.5Z" style="fill:rgb(211,47,47);fill-rule:nonzero;stroke:rgb(211,47,47);stroke-width:0.29px;stroke-linecap:butt;"/>
                </g>
                <g transform="matrix(3,0,0,3,417.91,255.248)">
                    <path d="M0,1.5C0.398,1.5 0.779,1.342 1.061,1.061C1.342,0.779 1.5,0.398 1.5,0C1.5,-0.398 1.342,-0.779 1.061,-1.061C0.779,-1.342 0.398,-1.5 0,-1.5C-0.398,-1.5 -0.779,-1.342 -1.061,-1.061C-1.342,-0.779 -1.5,-0.398 -1.5,0C-1.5,0.398 -1.342,0.779 -1.061,1.061C-0.779,1.342 -0.398,1.5 0,1.5Z" style="fill:rgb(211,47,47);fill-rule:nonzero;stroke:rgb(211,47,47);stroke-width:0.29px;stroke-linecap:butt;"/>
                </g>
                <g transform="matrix(3,0,0,3,417.91,256.246)">
                    <path d="M0,1.5C0.398,1.5 0.779,1.342 1.061,1.061C1.342,0.779 1.5,0.398 1.5,0C1.5,-0.398 1.342,-0.779 1.061,-1.061C0.779,-1.342 0.398,-1.5 0,-1.5C-0.398,-1.5 -0.779,-1.342 -1.061,-1.061C-1.342,-0.779 -1.5,-0.398 -1.5,0C-1.5,0.398 -1.342,0.779 -1.061,1.061C-0.779,1.342 -0.398,1.5 0,1.5Z" style="fill:rgb(211,47,47);fill-rule:nonzero;stroke:rgb(211,47,47);stroke-width:0.29px;stroke-linecap:butt;"/>
                </g>
            </g>
        </g>
        <g transform="matrix(1.13262,0,0,1.13262,18.5522,61.052)">
            <g>
                <g transform="matrix(0,-1,-1,0,763.173,362.877)">
                    <path d="M100.341,134.784L293.877,134.784" style="fill:none;fill-rule:nonzero;stroke:rgb(190,190,190);stroke-width:1.77px;stroke-linecap:butt;stroke-dasharray:6.53,2.83;"/>
                </g>
                <g transform="matrix(0,-1,-1,0,852.7,452.404)">
                    <path d="M189.868,134.784L383.404,134.784" style="fill:none;fill-rule:nonzero;stroke:rgb(190,190,190);stroke-width:1.77px;"/>
                </g>
            </g>
            <g transform="matrix(1,0,0,1,431.28,32.4612)">
                <path d="M407.852,49.635L394.943,50.307L384.616,51.043L376.01,51.857L368.264,52.815L362.24,53.766L357.076,54.776L351.912,56.024L347.609,57.305L344.167,58.532L340.724,59.987L337.282,61.727L334.7,63.266L332.118,65.051L329.537,67.137L326.955,69.591L325.233,71.475L323.512,73.594L321.791,75.985L320.07,78.696L318.349,81.78L316.627,85.305L314.906,89.349L313.185,94.007L311.464,99.391L309.742,105.632L308.021,112.878L306.3,121.291L304.579,131.026L302.858,142.198L301.136,154.815L298.554,175.853L295.973,196.876L295.112,203.001L294.251,208.3L293.391,212.586L292.53,215.768L291.67,217.895L290.809,219.146L289.948,219.783L289.088,220.059L287.366,220.195L284.785,220.145L283.924,220.012L283.063,219.675L282.203,218.935L281.342,217.543L280.482,215.265L279.621,211.957L278.76,207.608L277.9,202.325L276.179,189.749L271.875,155.743L270.154,143.649L268.433,132.927L266.712,123.568L264.991,115.464L263.269,108.471L261.548,102.441L259.827,97.236L258.106,92.734L256.384,88.83L254.663,85.436L252.942,82.478L251.221,79.894L249.5,77.632L247.778,75.651L246.057,73.915L243.475,71.707L240.893,69.909L238.312,68.462L235.73,67.328L233.148,66.481L230.566,65.911L227.984,65.62L225.402,65.626L223.681,65.814L221.96,66.168L220.239,66.712L218.517,67.477L216.796,68.503L215.075,69.844L213.354,71.563L211.633,73.741L209.911,76.467L208.19,79.831L206.469,83.89L204.748,88.607L201.305,98.742L200.445,100.905L199.584,102.659L198.723,103.866L197.863,104.411L197.002,104.223L196.141,103.29L195.281,101.663L194.42,99.447L192.699,93.819L189.257,81.571L187.535,76.285L185.814,71.838L184.093,68.186L182.372,65.214L180.65,62.8L178.929,60.832L177.208,59.217L175.487,57.882L173.766,56.769L171.184,55.419L168.602,54.358L166.02,53.51L162.578,52.618L158.275,51.773L153.111,51.024L147.087,50.384L139.341,49.793L129.014,49.246L115.244,48.757L96.31,48.324L69.631,47.949L64.468,47.896" style="fill:none;fill-rule:nonzero;stroke:rgb(229,115,115);stroke-width:2.65px;"/>
            </g>
            <g>
                <g transform="matrix(0,-1,-1,0,623.664,223.368)">
                    <path d="M-39.168,134.784L154.368,134.784" style="fill:none;fill-rule:nonzero;stroke:black;stroke-width:3.53px;stroke-linejoin:miter;"/>
                </g>
                <g transform="matrix(0,-1,-1,0,980.784,580.488)">
                    <path d="M317.952,134.784L511.488,134.784" style="fill:none;fill-rule:nonzero;stroke:black;stroke-width:3.53px;stroke-linejoin:miter;"/>
                </g>
                <g transform="matrix(1,0,0,1,431.28,224.52)">
                    <path d="M57.6,38.016L414.72,38.016" style="fill:none;fill-rule:nonzero;stroke:black;stroke-width:3.53px;stroke-linejoin:miter;"/>
                </g>
                <g transform="matrix(1,0,0,1,431.28,-162.552)">
                    <path d="M57.6,231.552L414.72,231.552" style="fill:none;fill-rule:nonzero;stroke:black;stroke-width:3.53px;stroke-linejoin:miter;"/>
                </g>
            </g>
            <g>
                <g transform="matrix(3,0,0,3,832.529,85.0636)">
                    <path d="M0,1.5C0.398,1.5 0.779,1.342 1.061,1.061C1.342,0.779 1.5,0.398 1.5,0C1.5,-0.398 1.342,-0.779 1.061,-1.061C0.779,-1.342 0.398,-1.5 0,-1.5C-0.398,-1.5 -0.779,-1.342 -1.061,-1.061C-1.342,-0.779 -1.5,-0.398 -1.5,0C-1.5,0.398 -1.342,0.779 -1.061,1.061C-0.779,1.342 -0.398,1.5 0,1.5Z" style="fill:rgb(211,47,47);fill-rule:nonzero;stroke:rgb(211,47,47);stroke-width:0.29px;stroke-linecap:butt;"/>
                </g>
                <g transform="matrix(3,0,0,3,827.026,86.2958)">
                    <path d="M0,1.5C0.398,1.5 0.779,1.342 1.061,1.061C1.342,0.779 1.5,0.398 1.5,0C1.5,-0.398 1.342,-0.779 1.061,-1.061C0.779,-1.342 0.398,-1.5 0,-1.5C-0.398,-1.5 -0.779,-1.342 -1.061,-1.061C-1.342,-0.779 -1.5,-0.398 -1.5,0C-1.5,0.398 -1.342,0.779 -1.061,1.061C-0.779,1.342 -0.398,1.5 0,1.5Z" style="fill:rgb(211,47,47);fill-rule:nonzero;stroke:rgb(211,47,47);stroke-width:0.29px;stroke-linecap:butt;"/>
                </g>
                <g transform="matrix(3,0,0,3,821.523,87.3144)">
                    <path d="M0,1.5C0.398,1.5 0.779,1.342 1.061,1.061C1.342,0.779 1.5,0.398 1.5,0C1.5,-0.398 1.342,-0.779 1.061,-1.061C0.779,-1.342 0.398,-1.5 0,-1.5C-0.398,-1.5 -0.779,-1.342 -1.061,-1.061C-1.342,-0.779 -1.5,-0.398 -1.5,0C-1.5,0.398 -1.342,0.779 -1.061,1.061C-0.779,1.342 -0.398,1.5 0,1.5Z" style="fill:rgb(211,47,47);fill-rule:nonzero;stroke:rgb(211,47,47);stroke-width:0.29px;stroke-linecap:butt;"/>
                </g>
                <g transform="matrix(3,0,0,3,816.02,86.8919)">
                    <path d="M0,1.5C0.398,1.5 0.779,1.342 1.061,1.061C1.342,0.779 1.5,0.398 1.5,0C1.5,-0.398 1.342,-0.779 1.061,-1.061C0.779,-1.342 0.398,-1.5 0,-1.5C-0.398,-1.5 -0.779,-1.342 -1.061,-1.061C-1.342,-0.779 -1.5,-0.398 -1.5,0C-1.5,0.398 -1.342,0.779 -1.061,1.061C-0.779,1.342 -0.398,1.5 0,1.5Z" style="fill:rgb(211,47,47);fill-rule:nonzero;stroke:rgb(211,47,47);stroke-width:0.29px;stroke-linecap:butt;"/>
                </g>
                <g transform="matrix(3,0,0,3,810.517,89.3079)">
                    <path d="M0,1.5C0.398,1.5 0.779,1.342 1.061,1.061C1.342,0.779 1.5,0.398 1.5,0C1.5,-0.398 1.342,-0.779 1.061,-1.061C0.779,-1.342 0.398,-1.5 0,-1.5C-0.398,-1.5 -0.779,-1.342 -1.061,-1.061C-1.342,-0.779 -1.5,-0.398 -1.5,0C-1.5,0.398 -1.342,0.779 -1.061,1.061C-0.779,1.342 -0.398,1.5 0,1.5Z" style="fill:rgb(211,47,47);fill-rule:nonzero;stroke:rgb(211,47,47);stroke-width:0.29px;stroke-linecap:butt;"/>
                </g>
                <g transform="matrix(3,0,0,3,805.014,88.4199)">
                    <path d="M0,1.5C0.398,1.5 0.779,1.342 1.061,1.061C1.342,0.779 1.5,0.398 1.5,0C1.5,-0.398 1.342,-0.779 1.061,-1.061C0.779,-1.342 0.398,-1.5 0,-1.5C-0.398,-1.5 -0.779,-1.342 -1.061,-1.061C-1.342,-0.779 -1.5,-0.398 -1.5,0C-1.5,0.398 -1.342,0.779 -1.061,1.061C-0.779,1.342 -0.398,1.5 0,1.5Z" style="fill:rgb(211,47,47);fill-rule:nonzero;stroke:rgb(211,47,47);stroke-width:0.29px;stroke-linecap:butt;"/>
                </g>
                <g transform="matrix(3,0,0,3,799.511,88.0468)">
                    <path d="M0,1.5C0.398,1.5 0.779,1.342 1.061,1.061C1.342,0.779 1.5,0.398 1.5,0C1.5,-0.398 1.342,-0.779 1.061,-1.061C0.779,-1.342 0.398,-1.5 0,-1.5C-0.398,-1.5 -0.779,-1.342 -1.061,-1.061C-1.342,-0.779 -1.5,-0.398 -1.5,0C-1.5,0.398 -1.342,0.779 -1.061,1.061C-0.779,1.342 -0.398,1.5 0,1.5Z" style="fill:rgb(211,47,47);fill-rule:nonzero;stroke:rgb(211,47,47);stroke-width:0.29px;stroke-linecap:butt;"/>
                </g>
                <g transform="matrix(3,0,0,3,794.008,88.2118)">
                    <path d="M0,1.5C0.398,1.5 0.779,1.342 1.061,1.061C1.342,0.779 1.5,0.398 1.5,0C1.5,-0.398 1.342,-0.779 1.061,-1.061C0.779,-1.342 0.398,-1.5 0,-1.5C-0.398,-1.5 -0.779,-1.342 -1.061,-1.061C-1.342,-0.779 -1.5,-0.398 -1.5,0C-1.5,0.398 -1.342,0.779 -1.061,1.061C-0.779,1.342 -0.398,1.5 0,1.5Z" style="fill:rgb(211,47,47);fill-rule:nonzero;stroke:rgb(211,47,47);stroke-width:0.29px;stroke-linecap:butt;"/>
                </g>
                <g transform="matrix(3,0,0,3,788.505,88.9947)">
                    <path d="M0,1.5C0.398,1.5 0.779,1.342 1.061,1.061C1.342,0.779 1.5,0.398 1.5,0C1.5,-0.398 1.342,-0.779 1.061,-1.061C0.779,-1.342 0.398,-1.5 0,-1.5C-0.398,-1.5 -0.779,-1.342 -1.061,-1.061C-1.342,-0.779 -1.5,-0.398 -1.5,0C-1.5,0.398 -1.342,0.779 -1.061,1.061C-0.779,1.342 -0.398,1.5 0,1.5Z" style="fill:rgb(211,47,47);fill-rule:nonzero;stroke:rgb(211,47,47);stroke-width:0.29px;stroke-linecap:butt;"/>
                </g>
                <g transform="matrix(3,0,0,3,783.002,93.0195)">
                    <path d="M0,1.5C0.398,1.5 0.779,1.342 1.061,1.061C1.342,0.779 1.5,0.398 1.5,0C1.5,-0.398 1.342,-0.779 1.061,-1.061C0.779,-1.342 0.398,-1.5 0,-1.5C-0.398,-1.5 -0.779,-1.342 -1.061,-1.061C-1.342,-0.779 -1.5,-0.398 -1.5,0C-1.5,0.398 -1.342,0.779 -1.061,1.061C-0.779,1.342 -0.398,1.5 0,1.5Z" style="fill:rgb(211,47,47);fill-rule:nonzero;stroke:rgb(211,47,47);stroke-width:0.29px;stroke-linecap:butt;"/>
                </g>
                <g transform="matrix(3,0,0,3,777.499,93.5235)">
                    <path d="M0,1.5C0.398,1.5 0.779,1.342 1.061,1.061C1.342,0.779 1.5,0.398 1.5,0C1.5,-0.398 1.342,-0.779 1.061,-1.061C0.779,-1.342 0.398,-1.5 0,-1.5C-0.398,-1.5 -0.779,-1.342 -1.061,-1.061C-1.342,-0.779 -1.5,-0.398 -1.5,0C-1.5,0.398 -1.342,0.779 -1.061,1.061C-0.779,1.342 -0.398,1.5 0,1.5Z" style="fill:rgb(211,47,47);fill-rule:nonzero;stroke:rgb(211,47,47);stroke-width:0.29px;stroke-linecap:butt;"/>
                </g>
                <g transform="matrix(3,0,0,3,771.996,95.816)">
                    <path d="M0,1.5C0.398,1.5 0.779,1.342 1.061,1.061C1.342,0.779 1.5,0.398 1.5,0C1.5,-0.398 1.342,-0.779 1.061,-1.061C0.779,-1.342 0.398,-1.5 0,-1.5C-0.398,-1.5 -0.779,-1.342 -1.061,-1.061C-1.342,-0.779 -1.5,-0.398 -1.5,0C-1.5,0.398 -1.342,0.779 -1.061,1.061C-0.779,1.342 -0.398,1.5 0,1.5Z" style="fill:rgb(211,47,47);fill-rule:nonzero;stroke:rgb(211,47,47);stroke-width:0.29px;stroke-linecap:butt;"/>
                </g>
                <g transform="matrix(3,0,0,3,766.493,97.9352)">
                    <path d="M0,1.5C0.398,1.5 0.779,1.342 1.061,1.061C1.342,0.779 1.5,0.398 1.5,0C1.5,-0.398 1.342,-0.779 1.061,-1.061C0.779,-1.342 0.398,-1.5 0,-1.5C-0.398,-1.5 -0.779,-1.342 -1.061,-1.061C-1.342,-0.779 -1.5,-0.398 -1.5,0C-1.5,0.398 -1.342,0.779 -1.061,1.061C-0.779,1.342 -0.398,1.5 0,1.5Z" style="fill:rgb(211,47,47);fill-rule:nonzero;stroke:rgb(211,47,47);stroke-width:0.29px;stroke-linecap:butt;"/>
                </g>
                <g transform="matrix(3,0,0,3,760.99,102.553)">
                    <path d="M0,1.5C0.398,1.5 0.779,1.342 1.061,1.061C1.342,0.779 1.5,0.398 1.5,0C1.5,-0.398 1.342,-0.779 1.061,-1.061C0.779,-1.342 0.398,-1.5 0,-1.5C-0.398,-1.5 -0.779,-1.342 -1.061,-1.061C-1.342,-0.779 -1.5,-0.398 -1.5,0C-1.5,0.398 -1.342,0.779 -1.061,1.061C-0.779,1.342 -0.398,1.5 0,1.5Z" style="fill:rgb(211,47,47);fill-rule:nonzero;stroke:rgb(211,47,47);stroke-width:0.29px;stroke-linecap:butt;"/>
                </g>
                <g transform="matrix(3,0,0,3,755.487,109.39)">
                    <path d="M0,1.5C0.398,1.5 0.779,1.342 1.061,1.061C1.342,0.779 1.5,0.398 1.5,0C1.5,-0.398 1.342,-0.779 1.061,-1.061C0.779,-1.342 0.398,-1.5 0,-1.5C-0.398,-1.5 -0.779,-1.342 -1.061,-1.061C-1.342,-0.779 -1.5,-0.398 -1.5,0C-1.5,0.398 -1.342,0.779 -1.061,1.061C-0.779,1.342 -0.398,1.5 0,1.5Z" style="fill:rgb(211,47,47);fill-rule:nonzero;stroke:rgb(211,47,47);stroke-width:0.29px;stroke-linecap:butt;"/>
                </g>
                <g transform="matrix(3,0,0,3,749.984,116.107)">
                    <path d="M0,1.5C0.398,1.5 0.779,1.342 1.061,1.061C1.342,0.779 1.5,0.398 1.5,0C1.5,-0.398 1.342,-0.779 1.061,-1.061C0.779,-1.342 0.398,-1.5 0,-1.5C-0.398,-1.5 -0.779,-1.342 -1.061,-1.061C-1.342,-0.779 -1.5,-0.398 -1.5,0C-1.5,0.398 -1.342,0.779 -1.061,1.061C-0.779,1.342 -0.398,1.5 0,1.5Z" style="fill:rgb(211,47,47);fill-rule:nonzero;stroke:rgb(211,47,47);stroke-width:0.29px;stroke-linecap:butt;"/>
                </g>
                <g transform="matrix(3,0,0,3,744.481,130.051)">
                    <path d="M0,1.5C0.398,1.5 0.779,1.342 1.061,1.061C1.342,0.779 1.5,0.398 1.5,0C1.5,-0.398 1.342,-0.779 1.061,-1.061C0.779,-1.342 0.398,-1.5 0,-1.5C-0.398,-1.5 -0.779,-1.342 -1.061,-1.061C-1.342,-0.779 -1.5,-0.398 -1.5,0C-1.5,0.398 -1.342,0.779 -1.061,1.061C-0.779,1.342 -0.398,1.5 0,1.5Z" style="fill:rgb(211,47,47);fill-rule:nonzero;stroke:rgb(211,47,47);stroke-width:0.29px;stroke-linecap:butt;"/>
                </g>
                <g transform="matrix(3,0,0,3,738.978,150.714)">
                    <path d="M0,1.5C0.398,1.5 0.779,1.342 1.061,1.061C1.342,0.779 1.5,0.398 1.5,0C1.5,-0.398 1.342,-0.779 1.061,-1.061C0.779,-1.342 0.398,-1.5 0,-1.5C-0.398,-1.5 -0.779,-1.342 -1.061,-1.061C-1.342,-0.779 -1.5,-0.398 -1.5,0C-1.5,0.398 -1.342,0.779 -1.061,1.061C-0.779,1.342 -0.398,1.5 0,1.5Z" style="fill:rgb(211,47,47);fill-rule:nonzero;stroke:rgb(211,47,47);stroke-width:0.29px;stroke-linecap:butt;"/>
                </g>
                <g transform="matrix(3,0,0,3,733.476,182.512)">
                    <path d="M0,1.5C0.398,1.5 0.779,1.342 1.061,1.061C1.342,0.779 1.5,0.398 1.5,0C1.5,-0.398 1.342,-0.779 1.061,-1.061C0.779,-1.342 0.398,-1.5 0,-1.5C-0.398,-1.5 -0.779,-1.342 -1.061,-1.061C-1.342,-0.779 -1.5,-0.398 -1.5,0C-1.5,0.398 -1.342,0.779 -1.061,1.061C-0.779,1.342 -0.398,1.5 0,1.5Z" style="fill:rgb(211,47,47);fill-rule:nonzero;stroke:rgb(211,47,47);stroke-width:0.29px;stroke-linecap:butt;"/>
                </g>
                <g transform="matrix(3,0,0,3,727.973,225.959)">
                    <path d="M0,1.5C0.398,1.5 0.779,1.342 1.061,1.061C1.342,0.779 1.5,0.398 1.5,0C1.5,-0.398 1.342,-0.779 1.061,-1.061C0.779,-1.342 0.398,-1.5 0,-1.5C-0.398,-1.5 -0.779,-1.342 -1.061,-1.061C-1.342,-0.779 -1.5,-0.398 -1.5,0C-1.5,0.398 -1.342,0.779 -1.061,1.061C-0.779,1.342 -0.398,1.5 0,1.5Z" style="fill:rgb(211,47,47);fill-rule:nonzero;stroke:rgb(211,47,47);stroke-width:0.29px;stroke-linecap:butt;"/>
                </g>
                <g transform="matrix(3,0,0,3,722.47,253.84)">
                    <path d="M0,1.5C0.398,1.5 0.779,1.342 1.061,1.061C1.342,0.779 1.5,0.398 1.5,0C1.5,-0.398 1.342,-0.779 1.061,-1.061C0.779,-1.342 0.398,-1.5 0,-1.5C-0.398,-1.5 -0.779,-1.342 -1.061,-1.061C-1.342,-0.779 -1.5,-0.398 -1.5,0C-1.5,0.398 -1.342,0.779 -1.061,1.061C-0.779,1.342 -0.398,1.5 0,1.5Z" style="fill:rgb(211,47,47);fill-rule:nonzero;stroke:rgb(211,47,47);stroke-width:0.29px;stroke-linecap:butt;"/>
                </g>
                <g transform="matrix(3,0,0,3,711.464,249.611)">
                    <path d="M0,1.5C0.398,1.5 0.779,1.342 1.061,1.061C1.342,0.779 1.5,0.398 1.5,0C1.5,-0.398 1.342,-0.779 1.061,-1.061C0.779,-1.342 0.398,-1.5 0,-1.5C-0.398,-1.5 -0.779,-1.342 -1.061,-1.061C-1.342,-0.779 -1.5,-0.398 -1.5,0C-1.5,0.398 -1.342,0.779 -1.061,1.061C-0.779,1.342 -0.398,1.5 0,1.5Z" style="fill:rgb(211,47,47);fill-rule:nonzero;stroke:rgb(211,47,47);stroke-width:0.29px;stroke-linecap:butt;"/>
                </g>
                <g transform="matrix(3,0,0,3,705.961,211.077)">
                    <path d="M0,1.5C0.398,1.5 0.779,1.342 1.061,1.061C1.342,0.779 1.5,0.398 1.5,0C1.5,-0.398 1.342,-0.779 1.061,-1.061C0.779,-1.342 0.398,-1.5 0,-1.5C-0.398,-1.5 -0.779,-1.342 -1.061,-1.061C-1.342,-0.779 -1.5,-0.398 -1.5,0C-1.5,0.398 -1.342,0.779 -1.061,1.061C-0.779,1.342 -0.398,1.5 0,1.5Z" style="fill:rgb(211,47,47);fill-rule:nonzero;stroke:rgb(211,47,47);stroke-width:0.29px;stroke-linecap:butt;"/>
                </g>
                <g transform="matrix(3,0,0,3,700.458,173.348)">
                    <path d="M0,1.5C0.398,1.5 0.779,1.342 1.061,1.061C1.342,0.779 1.5,0.398 1.5,0C1.5,-0.398 1.342,-0.779 1.061,-1.061C0.779,-1.342 0.398,-1.5 0,-1.5C-0.398,-1.5 -0.779,-1.342 -1.061,-1.061C-1.342,-0.779 -1.5,-0.398 -1.5,0C-1.5,0.398 -1.342,0.779 -1.061,1.061C-0.779,1.342 -0.398,1.5 0,1.5Z" style="fill:rgb(211,47,47);fill-rule:nonzero;stroke:rgb(211,47,47);stroke-width:0.29px;stroke-linecap:butt;"/>
                </g>
                <g transform="matrix(3,0,0,3,694.955,146.11)">
                    <path d="M0,1.5C0.398,1.5 0.779,1.342 1.061,1.061C1.342,0.779 1.5,0.398 1.5,0C1.5,-0.398 1.342,-0.779 1.061,-1.061C0.779,-1.342 0.398,-1.5 0,-1.5C-0.398,-1.5 -0.779,-1.342 -1.061,-1.061C-1.342,-0.779 -1.5,-0.398 -1.5,0C-1.5,0.398 -1.342,0.779 -1.061,1.061C-0.779,1.342 -0.398,1.5 0,1.5Z" style="fill:rgb(211,47,47);fill-rule:nonzero;stroke:rgb(211,47,47);stroke-width:0.29px;stroke-linecap:butt;"/>
                </g>
                <g transform="matrix(3,0,0,3,689.452,131.213)">
                    <path d="M0,1.5C0.398,1.5 0.779,1.342 1.061,1.061C1.342,0.779 1.5,0.398 1.5,0C1.5,-0.398 1.342,-0.779 1.061,-1.061C0.779,-1.342 0.398,-1.5 0,-1.5C-0.398,-1.5 -0.779,-1.342 -1.061,-1.061C-1.342,-0.779 -1.5,-0.398 -1.5,0C-1.5,0.398 -1.342,0.779 -1.061,1.061C-0.779,1.342 -0.398,1.5 0,1.5Z" style="fill:rgb(211,47,47);fill-rule:nonzero;stroke:rgb(211,47,47);stroke-width:0.29px;stroke-linecap:butt;"/>
                </g>
                <g transform="matrix(3,0,0,3,683.949,117.734)">
                    <path d="M0,1.5C0.398,1.5 0.779,1.342 1.061,1.061C1.342,0.779 1.5,0.398 1.5,0C1.5,-0.398 1.342,-0.779 1.061,-1.061C0.779,-1.342 0.398,-1.5 0,-1.5C-0.398,-1.5 -0.779,-1.342 -1.061,-1.061C-1.342,-0.779 -1.5,-0.398 -1.5,0C-1.5,0.398 -1.342,0.779 -1.061,1.061C-0.779,1.342 -0.398,1.5 0,1.5Z" style="fill:rgb(211,47,47);fill-rule:nonzero;stroke:rgb(211,47,47);stroke-width:0.29px;stroke-linecap:butt;"/>
                </g>
                <g transform="matrix(3,0,0,3,678.446,111.984)">
                    <path d="M0,1.5C0.398,1.5 0.779,1.342 1.061,1.061C1.342,0.779 1.5,0.398 1.5,0C1.5,-0.398 1.342,-0.779 1.061,-1.061C0.779,-1.342 0.398,-1.5 0,-1.5C-0.398,-1.5 -0.779,-1.342 -1.061,-1.061C-1.342,-0.779 -1.5,-0.398 -1.5,0C-1.5,0.398 -1.342,0.779 -1.061,1.061C-0.779,1.342 -0.398,1.5 0,1.5Z" style="fill:rgb(211,47,47);fill-rule:nonzero;stroke:rgb(211,47,47);stroke-width:0.29px;stroke-linecap:butt;"/>
                </g>
                <g transform="matrix(3,0,0,3,672.943,106.802)">
                    <path d="M0,1.5C0.398,1.5 0.779,1.342 1.061,1.061C1.342,0.779 1.5,0.398 1.5,0C1.5,-0.398 1.342,-0.779 1.061,-1.061C0.779,-1.342 0.398,-1.5 0,-1.5C-0.398,-1.5 -0.779,-1.342 -1.061,-1.061C-1.342,-0.779 -1.5,-0.398 -1.5,0C-1.5,0.398 -1.342,0.779 -1.061,1.061C-0.779,1.342 -0.398,1.5 0,1.5Z" style="fill:rgb(211,47,47);fill-rule:nonzero;stroke:rgb(211,47,47);stroke-width:0.29px;stroke-linecap:butt;"/>
                </g>
                <g transform="matrix(3,0,0,3,667.44,104.645)">
                    <path d="M0,1.5C0.398,1.5 0.779,1.342 1.061,1.061C1.342,0.779 1.5,0.398 1.5,0C1.5,-0.398 1.342,-0.779 1.061,-1.061C0.779,-1.342 0.398,-1.5 0,-1.5C-0.398,-1.5 -0.779,-1.342 -1.061,-1.061C-1.342,-0.779 -1.5,-0.398 -1.5,0C-1.5,0.398 -1.342,0.779 -1.061,1.061C-0.779,1.342 -0.398,1.5 0,1.5Z" style="fill:rgb(211,47,47);fill-rule:nonzero;stroke:rgb(211,47,47);stroke-width:0.29px;stroke-linecap:butt;"/>
                </g>
                <g transform="matrix(3,0,0,3,661.937,102.135)">
                    <path d="M0,1.5C0.398,1.5 0.779,1.342 1.061,1.061C1.342,0.779 1.5,0.398 1.5,0C1.5,-0.398 1.342,-0.779 1.061,-1.061C0.779,-1.342 0.398,-1.5 0,-1.5C-0.398,-1.5 -0.779,-1.342 -1.061,-1.061C-1.342,-0.779 -1.5,-0.398 -1.5,0C-1.5,0.398 -1.342,0.779 -1.061,1.061C-0.779,1.342 -0.398,1.5 0,1.5Z" style="fill:rgb(211,47,47);fill-rule:nonzero;stroke:rgb(211,47,47);stroke-width:0.29px;stroke-linecap:butt;"/>
                </g>
                <g transform="matrix(3,0,0,3,656.434,103.136)">
                    <path d="M0,1.5C0.398,1.5 0.779,1.342 1.061,1.061C1.342,0.779 1.5,0.398 1.5,0C1.5,-0.398 1.342,-0.779 1.061,-1.061C0.779,-1.342 0.398,-1.5 0,-1.5C-0.398,-1.5 -0.779,-1.342 -1.061,-1.061C-1.342,-0.779 -1.5,-0.398 -1.5,0C-1.5,0.398 -1.342,0.779 -1.061,1.061C-0.779,1.342 -0.398,1.5 0,1.5Z" style="fill:rgb(211,47,47);fill-rule:nonzero;stroke:rgb(211,47,47);stroke-width:0.29px;stroke-linecap:butt;"/>
                </g>
                <g transform="matrix(3,0,0,3,650.931,103.742)">
                    <path d="M0,1.5C0.398,1.5 0.779,1.342 1.061,1.061C1.342,0.779 1.5,0.398 1.5,0C1.5,-0.398 1.342,-0.779 1.061,-1.061C0.779,-1.342 0.398,-1.5 0,-1.5C-0.398,-1.5 -0.779,-1.342 -1.061,-1.061C-1.342,-0.779 -1.5,-0.398 -1.5,0C-1.5,0.398 -1.342,0.779 -1.061,1.061C-0.779,1.342 -0.398,1.5 0,1.5Z" style="fill:rgb(211,47,47);fill-rule:nonzero;stroke:rgb(211,47,47);stroke-width:0.29px;stroke-linecap:butt;"/>
                </g>
                <g transform="matrix(3,0,0,3,645.428,104.834)">
                    <path d="M0,1.5C0.398,1.5 0.779,1.342 1.061,1.061C1.342,0.779 1.5,0.398 1.5,0C1.5,-0.398 1.342,-0.779 1.061,-1.061C0.779,-1.342 0.398,-1.5 0,-1.5C-0.398,-1.5 -0.779,-1.342 -1.061,-1.061C-1.342,-0.779 -1.5,-0.398 -1.5,0C-1.5,0.398 -1.342,0.779 -1.061,1.061C-0.779,1.342 -0.398,1.5 0,1.5Z" style="fill:rgb(211,47,47);fill-rule:nonzero;stroke:rgb(211,47,47);stroke-width:0.29px;stroke-linecap:butt;"/>
                </g>
                <g transform="matrix(3,0,0,3,639.925,113.155)">
                    <path d="M0,1.5C0.398,1.5 0.779,1.342 1.061,1.061C1.342,0.779 1.5,0.398 1.5,0C1.5,-0.398 1.342,-0.779 1.061,-1.061C0.779,-1.342 0.398,-1.5 0,-1.5C-0.398,-1.5 -0.779,-1.342 -1.061,-1.061C-1.342,-0.779 -1.5,-0.398 -1.5,0C-1.5,0.398 -1.342,0.779 -1.061,1.061C-0.779,1.342 -0.398,1.5 0,1.5Z" style="fill:rgb(211,47,47);fill-rule:nonzero;stroke:rgb(211,47,47);stroke-width:0.29px;stroke-linecap:butt;"/>
                </g>
                <g transform="matrix(3,0,0,3,634.422,127.731)">
                    <path d="M0,1.5C0.398,1.5 0.779,1.342 1.061,1.061C1.342,0.779 1.5,0.398 1.5,0C1.5,-0.398 1.342,-0.779 1.061,-1.061C0.779,-1.342 0.398,-1.5 0,-1.5C-0.398,-1.5 -0.779,-1.342 -1.061,-1.061C-1.342,-0.779 -1.5,-0.398 -1.5,0C-1.5,0.398 -1.342,0.779 -1.061,1.061C-0.779,1.342 -0.398,1.5 0,1.5Z" style="fill:rgb(211,47,47);fill-rule:nonzero;stroke:rgb(211,47,47);stroke-width:0.29px;stroke-linecap:butt;"/>
                </g>
                <g transform="matrix(3,0,0,3,628.919,137.603)">
                    <path d="M0,1.5C0.398,1.5 0.779,1.342 1.061,1.061C1.342,0.779 1.5,0.398 1.5,0C1.5,-0.398 1.342,-0.779 1.061,-1.061C0.779,-1.342 0.398,-1.5 0,-1.5C-0.398,-1.5 -0.779,-1.342 -1.061,-1.061C-1.342,-0.779 -1.5,-0.398 -1.5,0C-1.5,0.398 -1.342,0.779 -1.061,1.061C-0.779,1.342 -0.398,1.5 0,1.5Z" style="fill:rgb(211,47,47);fill-rule:nonzero;stroke:rgb(211,47,47);stroke-width:0.29px;stroke-linecap:butt;"/>
                </g>
                <g transform="matrix(3,0,0,3,623.416,126.115)">
                    <path d="M0,1.5C0.398,1.5 0.779,1.342 1.061,1.061C1.342,0.779 1.5,0.398 1.5,0C1.5,-0.398 1.342,-0.779 1.061,-1.061C0.779,-1.342 0.398,-1.5 0,-1.5C-0.398,-1.5 -0.779,-1.342 -1.061,-1.061C-1.342,-0.779 -1.5,-0.398 -1.5,0C-1.5,0.398 -1.342,0.779 -1.061,1.061C-0.779,1.342 -0.398,1.5 0,1.5Z" style="fill:rgb(211,47,47);fill-rule:nonzero;stroke:rgb(211,47,47);stroke-width:0.29px;stroke-linecap:butt;"/>
                </g>
                <g transform="matrix(3,0,0,3,617.913,109.669)">
                    <path d="M0,1.5C0.398,1.5 0.779,1.342 1.061,1.061C1.342,0.779 1.5,0.398 1.5,0C1.5,-0.398 1.342,-0.779 1.061,-1.061C0.779,-1.342 0.398,-1.5 0,-1.5C-0.398,-1.5 -0.779,-1.342 -1.061,-1.061C-1.342,-0.779 -1.5,-0.398 -1.5,0C-1.5,0.398 -1.342,0.779 -1.061,1.061C-0.779,1.342 -0.398,1.5 0,1.5Z" style="fill:rgb(211,47,47);fill-rule:nonzero;stroke:rgb(211,47,47);stroke-width:0.29px;stroke-linecap:butt;"/>
                </g>
                <g transform="matrix(3,0,0,3,612.41,97.4118)">
                    <path d="M0,1.5C0.398,1.5 0.779,1.342 1.061,1.061C1.342,0.779 1.5,0.398 1.5,0C1.5,-0.398 1.342,-0.779 1.061,-1.061C0.779,-1.342 0.398,-1.5 0,-1.5C-0.398,-1.5 -0.779,-1.342 -1.061,-1.061C-1.342,-0.779 -1.5,-0.398 -1.5,0C-1.5,0.398 -1.342,0.779 -1.061,1.061C-0.779,1.342 -0.398,1.5 0,1.5Z" style="fill:rgb(211,47,47);fill-rule:nonzero;stroke:rgb(211,47,47);stroke-width:0.29px;stroke-linecap:butt;"/>
                </g>
                <g transform="matrix(3,0,0,3,606.907,92.9513)">
                    <path d="M0,1.5C0.398,1.5 0.779,1.342 1.061,1.061C1.342,0.779 1.5,0.398 1.5,0C1.5,-0.398 1.342,-0.779 1.061,-1.061C0.779,-1.342 0.398,-1.5 0,-1.5C-0.398,-1.5 -0.779,-1.342 -1.061,-1.061C-1.342,-0.779 -1.5,-0.398 -1.5,0C-1.5,0.398 -1.342,0.779 -1.061,1.061C-0.779,1.342 -0.398,1.5 0,1.5Z" style="fill:rgb(211,47,47);fill-rule:nonzero;stroke:rgb(211,47,47);stroke-width:0.29px;stroke-linecap:butt;"/>
                </g>
                <g transform="matrix(3,0,0,3,601.404,87.542)">
                    <path d="M0,1.5C0.398,1.5 0.779,1.342 1.061,1.061C1.342,0.779 1.5,0.398 1.5,0C1.5,-0.398 1.342,-0.779 1.061,-1.061C0.779,-1.342 0.398,-1.5 0,-1.5C-0.398,-1.5 -0.779,-1.342 -1.061,-1.061C-1.342,-0.779 -1.5,-0.398 -1.5,0C-1.5,0.398 -1.342,0.779 -1.061,1.061C-0.779,1.342 -0.398,1.5 0,1.5Z" style="fill:rgb(211,47,47);fill-rule:nonzero;stroke:rgb(211,47,47);stroke-width:0.29px;stroke-linecap:butt;"/>
                </g>
                <g transform="matrix(3,0,0,3,595.902,86.3114)">
                    <path d="M0,1.5C0.398,1.5 0.779,1.342 1.061,1.061C1.342,0.779 1.5,0.398 1.5,0C1.5,-0.398 1.342,-0.779 1.061,-1.061C0.779,-1.342 0.398,-1.5 0,-1.5C-0.398,-1.5 -0.779,-1.342 -1.061,-1.061C-1.342,-0.779 -1.5,-0.398 -1.5,0C-1.5,0.398 -1.342,0.779 -1.061,1.061C-0.779,1.342 -0.398,1.5 0,1.5Z" style="fill:rgb(211,47,47);fill-rule:nonzero;stroke:rgb(211,47,47);stroke-width:0.29px;stroke-linecap:butt;"/>
                </g>
                <g transform="matrix(3,0,0,3,590.399,86.8286)">
                    <path d="M0,1.5C0.398,1.5 0.779,1.342 1.061,1.061C1.342,0.779 1.5,0.398 1.5,0C1.5,-0.398 1.342,-0.779 1.061,-1.061C0.779,-1.342 0.398,-1.5 0,-1.5C-0.398,-1.5 -0.779,-1.342 -1.061,-1.061C-1.342,-0.779 -1.5,-0.398 -1.5,0C-1.5,0.398 -1.342,0.779 -1.061,1.061C-0.779,1.342 -0.398,1.5 0,1.5Z" style="fill:rgb(211,47,47);fill-rule:nonzero;stroke:rgb(211,47,47);stroke-width:0.29px;stroke-linecap:butt;"/>
                </g>
                <g transform="matrix(3,0,0,3,584.896,85.6716)">
                    <path d="M0,1.5C0.398,1.5 0.779,1.342 1.061,1.061C1.342,0.779 1.5,0.398 1.5,0C1.5,-0.398 1.342,-0.779 1.061,-1.061C0.779,-1.342 0.398,-1.5 0,-1.5C-0.398,-1.5 -0.779,-1.342 -1.061,-1.061C-1.342,-0.779 -1.5,-0.398 -1.5,0C-1.5,0.398 -1.342,0.779 -1.061,1.061C-0.779,1.342 -0.398,1.5 0,1.5Z" style="fill:rgb(211,47,47);fill-rule:nonzero;stroke:rgb(211,47,47);stroke-width:0.29px;stroke-linecap:butt;"/>
                </g>
                <g transform="matrix(3,0,0,3,579.393,86.3509)">
                    <path d="M0,1.5C0.398,1.5 0.779,1.342 1.061,1.061C1.342,0.779 1.5,0.398 1.5,0C1.5,-0.398 1.342,-0.779 1.061,-1.061C0.779,-1.342 0.398,-1.5 0,-1.5C-0.398,-1.5 -0.779,-1.342 -1.061,-1.061C-1.342,-0.779 -1.5,-0.398 -1.5,0C-1.5,0.398 -1.342,0.779 -1.061,1.061C-0.779,1.342 -0.398,1.5 0,1.5Z" style="fill:rgb(211,47,47);fill-rule:nonzero;stroke:rgb(211,47,47);stroke-width:0.29px;stroke-linecap:butt;"/>
                </g>
                <g transform="matrix(3,0,0,3,573.89,86.1634)">
                    <path d="M0,1.5C0.398,1.5 0.779,1.342 1.061,1.061C1.342,0.779 1.5,0.398 1.5,0C1.5,-0.398 1.342,-0.779 1.061,-1.061C0.779,-1.342 0.398,-1.5 0,-1.5C-0.398,-1.5 -0.779,-1.342 -1.061,-1.061C-1.342,-0.779 -1.5,-0.398 -1.5,0C-1.5,0.398 -1.342,0.779 -1.061,1.061C-0.779,1.342 -0.398,1.5 0,1.5Z" style="fill:rgb(211,47,47);fill-rule:nonzero;stroke:rgb(211,47,47);stroke-width:0.29px;stroke-linecap:butt;"/>
                </g>
                <g transform="matrix(3,0,0,3,568.387,84.4368)">
                    <path d="M0,1.5C0.398,1.5 0.779,1.342 1.061,1.061C1.342,0.779 1.5,0.398 1.5,0C1.5,-0.398 1.342,-0.779 1.061,-1.061C0.779,-1.342 0.398,-1.5 0,-1.5C-0.398,-1.5 -0.779,-1.342 -1.061,-1.061C-1.342,-0.779 -1.5,-0.398 -1.5,0C-1.5,0.398 -1.342,0.779 -1.061,1.061C-0.779,1.342 -0.398,1.5 0,1.5Z" style="fill:rgb(211,47,47);fill-rule:nonzero;stroke:rgb(211,47,47);stroke-width:0.29px;stroke-linecap:butt;"/>
                </g>
                <g transform="matrix(3,0,0,3,562.884,84.1309)">
                    <path d="M0,1.5C0.398,1.5 0.779,1.342 1.061,1.061C1.342,0.779 1.5,0.398 1.5,0C1.5,-0.398 1.342,-0.779 1.061,-1.061C0.779,-1.342 0.398,-1.5 0,-1.5C-0.398,-1.5 -0.779,-1.342 -1.061,-1.061C-1.342,-0.779 -1.5,-0.398 -1.5,0C-1.5,0.398 -1.342,0.779 -1.061,1.061C-0.779,1.342 -0.398,1.5 0,1.5Z" style="fill:rgb(211,47,47);fill-rule:nonzero;stroke:rgb(211,47,47);stroke-width:0.29px;stroke-linecap:butt;"/>
                </g>
                <g transform="matrix(3,0,0,3,557.381,85.2127)">
                    <path d="M0,1.5C0.398,1.5 0.779,1.342 1.061,1.061C1.342,0.779 1.5,0.398 1.5,0C1.5,-0.398 1.342,-0.779 1.061,-1.061C0.779,-1.342 0.398,-1.5 0,-1.5C-0.398,-1.5 -0.779,-1.342 -1.061,-1.061C-1.342,-0.779 -1.5,-0.398 -1.5,0C-1.5,0.398 -1.342,0.779 -1.061,1.061C-0.779,1.342 -0.398,1.5 0,1.5Z" style="fill:rgb(211,47,47);fill-rule:nonzero;stroke:rgb(211,47,47);stroke-width:0.29px;stroke-linecap:butt;"/>
                </g>
                <g transform="matrix(3,0,0,3,551.878,83.2945)">
                    <path d="M0,1.5C0.398,1.5 0.779,1.342 1.061,1.061C1.342,0.779 1.5,0.398 1.5,0C1.5,-0.398 1.342,-0.779 1.061,-1.061C0.779,-1.342 0.398,-1.5 0,-1.5C-0.398,-1.5 -0.779,-1.342 -1.061,-1.061C-1.342,-0.779 -1.5,-0.398 -1.5,0C-1.5,0.398 -1.342,0.779 -1.061,1.061C-0.779,1.342 -0.398,1.5 0,1.5Z" style="fill:rgb(211,47,47);fill-rule:nonzero;stroke:rgb(211,47,47);stroke-width:0.29px;stroke-linecap:butt;"/>
                </g>
                <g transform="matrix(3,0,0,3,546.375,83.1833)">
                    <path d="M0,1.5C0.398,1.5 0.779,1.342 1.061,1.061C1.342,0.779 1.5,0.398 1.5,0C1.5,-0.398 1.342,-0.779 1.061,-1.061C0.779,-1.342 0.398,-1.5 0,-1.5C-0.398,-1.5 -0.779,-1.342 -1.061,-1.061C-1.342,-0.779 -1.5,-0.398 -1.5,0C-1.5,0.398 -1.342,0.779 -1.061,1.061C-0.779,1.342 -0.398,1.5 0,1.5Z" style="fill:rgb(211,47,47);fill-rule:nonzero;stroke:rgb(211,47,47);stroke-width:0.29px;stroke-linecap:butt;"/>
                </g>
                <g transform="matrix(3,0,0,3,540.872,83.5875)">
                    <path d="M0,1.5C0.398,1.5 0.779,1.342 1.061,1.061C1.342,0.779 1.5,0.398 1.5,0C1.5,-0.398 1.342,-0.779 1.061,-1.061C0.779,-1.342 0.398,-1.5 0,-1.5C-0.398,-1.5 -0.779,-1.342 -1.061,-1.061C-1.342,-0.779 -1.5,-0.398 -1.5,0C-1.5,0.398 -1.342,0.779 -1.061,1.061C-0.779,1.342 -0.398,1.5 0,1.5Z" style="fill:rgb(211,47,47);fill-rule:nonzero;stroke:rgb(211,47,47);stroke-width:0.29px;stroke-linecap:butt;"/>
                </g>
                <g transform="matrix(3,0,0,3,535.369,83.8002)">
                    <path d="M0,1.5C0.398,1.5 0.779,1.342 1.061,1.061C1.342,0.779 1.5,0.398 1.5,0C1.5,-0.398 1.342,-0.779 1.061,-1.061C0.779,-1.342 0.398,-1.5 0,-1.5C-0.398,-1.5 -0.779,-1.342 -1.061,-1.061C-1.342,-0.779 -1.5,-0.398 -1.5,0C-1.5,0.398 -1.342,0.779 -1.061,1.061C-0.779,1.342 -0.398,1.5 0,1.5Z" style="fill:rgb(211,47,47);fill-rule:nonzero;stroke:rgb(211,47,47);stroke-width:0.29px;stroke-linecap:butt;"/>
                </g>
                <g transform="matrix(3,0,0,3,529.866,84.5039)">
                    <path d="M0,1.5C0.398,1.5 0.779,1.342 1.061,1.061C1.342,0.779 1.5,0.398 1.5,0C1.5,-0.398 1.342,-0.779 1.061,-1.061C0.779,-1.342 0.398,-1.5 0,-1.5C-0.398,-1.5 -0.779,-1.342 -1.061,-1.061C-1.342,-0.779 -1.5,-0.398 -1.5,0C-1.5,0.398 -1.342,0.779 -1.061,1.061C-0.779,1.342 -0.398,1.5 0,1.5Z" style="fill:rgb(211,47,47);fill-rule:nonzero;stroke:rgb(211,47,47);stroke-width:0.29px;stroke-linecap:butt;"/>
                </g>
                <g transform="matrix(3,0,0,3,524.363,83.6846)">
                    <path d="M0,1.5C0.398,1.5 0.779,1.342 1.061,1.061C1.342,0.779 1.5,0.398 1.5,0C1.5,-0.398 1.342,-0.779 1.061,-1.061C0.779,-1.342 0.398,-1.5 0,-1.5C-0.398,-1.5 -0.779,-1.342 -1.061,-1.061C-1.342,-0.779 -1.5,-0.398 -1.5,0C-1.5,0.398 -1.342,0.779 -1.061,1.061C-0.779,1.342 -0.398,1.5 0,1.5Z" style="fill:rgb(211,47,47);fill-rule:nonzero;stroke:rgb(211,47,47);stroke-width:0.29px;stroke-linecap:butt;"/>
                </g>
                <g transform="matrix(3,0,0,3,518.86,83.6768)">
                    <path d="M0,1.5C0.398,1.5 0.779,1.342 1.061,1.061C1.342,0.779 1.5,0.398 1.5,0C1.5,-0.398 1.342,-0.779 1.061,-1.061C0.779,-1.342 0.398,-1.5 0,-1.5C-0.398,-1.5 -0.779,-1.342 -1.061,-1.061C-1.342,-0.779 -1.5,-0.398 -1.5,0C-1.5,0.398 -1.342,0.779 -1.061,1.061C-0.779,1.342 -0.398,1.5 0,1.5Z" style="fill:rgb(211,47,47);fill-rule:nonzero;stroke:rgb(211,47,47);stroke-width:0.29px;stroke-linecap:butt;"/>
                </g>
                <g transform="matrix(3,0,0,3,513.357,82.0781)">
                    <path d="M0,1.5C0.398,1.5 0.779,1.342 1.061,1.061C1.342,0.779 1.5,0.398 1.5,0C1.5,-0.398 1.342,-0.779 1.061,-1.061C0.779,-1.342 0.398,-1.5 0,-1.5C-0.398,-1.5 -0.779,-1.342 -1.061,-1.061C-1.342,-0.779 -1.5,-0.398 -1.5,0C-1.5,0.398 -1.342,0.779 -1.061,1.061C-0.779,1.342 -0.398,1.5 0,1.5Z" style="fill:rgb(211,47,47);fill-rule:nonzero;stroke:rgb(211,47,47);stroke-width:0.29px;stroke-linecap:butt;"/>
                </g>
                <g transform="matrix(3,0,0,3,507.854,83.4853)">
                    <path d="M0,1.5C0.398,1.5 0.779,1.342 1.061,1.061C1.342,0.779 1.5,0.398 1.5,0C1.5,-0.398 1.342,-0.779 1.061,-1.061C0.779,-1.342 0.398,-1.5 0,-1.5C-0.398,-1.5 -0.779,-1.342 -1.061,-1.061C-1.342,-0.779 -1.5,-0.398 -1.5,0C-1.5,0.398 -1.342,0.779 -1.061,1.061C-0.779,1.342 -0.398,1.5 0,1.5Z" style="fill:rgb(211,47,47);fill-rule:nonzero;stroke:rgb(211,47,47);stroke-width:0.29px;stroke-linecap:butt;"/>
                </g>
                <g transform="matrix(3,0,0,3,502.351,84.6764)">
                    <path d="M0,1.5C0.398,1.5 0.779,1.342 1.061,1.061C1.342,0.779 1.5,0.398 1.5,0C1.5,-0.398 1.342,-0.779 1.061,-1.061C0.779,-1.342 0.398,-1.5 0,-1.5C-0.398,-1.5 -0.779,-1.342 -1.061,-1.061C-1.342,-0.779 -1.5,-0.398 -1.5,0C-1.5,0.398 -1.342,0.779 -1.061,1.061C-0.779,1.342 -0.398,1.5 0,1.5Z" style="fill:rgb(211,47,47);fill-rule:nonzero;stroke:rgb(211,47,47);stroke-width:0.29px;stroke-linecap:butt;"/>
                </g>
                <g transform="matrix(3,0,0,3,-140.093,111.176)">
                    <path d="M285.687,49.594C286.084,49.594 286.466,49.436 286.747,49.155C287.029,48.873 287.187,48.492 287.187,48.094C287.187,47.696 287.029,47.315 286.747,47.033C286.466,46.752 286.084,46.594 285.687,46.594C285.289,46.594 284.907,46.752 284.626,47.033C284.345,47.315 284.187,47.696 284.187,48.094C284.187,48.492 284.345,48.873 284.626,49.155C284.907,49.436 285.289,49.594 285.687,49.594Z" style="fill:rgb(211,47,47);fill-rule:nonzero;stroke:black;stroke-width:0.29px;stroke-linecap:butt;"/>
                </g>
            </g>
        </g>
        <g transform="matrix(1.06443,0,0,1.06443,3.26877,76.3298)">
            <g transform="matrix(0.939474,-0,-0,0.939474,-1.42684,-20.0387)">
                <path d="M268.047,445.335L308.073,468.389L265.614,486.578C276.533,476.875 277.749,456.254 268.047,445.335Z"/>
                <path d="M154.796,327.884C158.984,409.3 197.973,456.572 275.079,466.443" style="fill:none;stroke:black;stroke-width:6px;stroke-linecap:round;stroke-miterlimit:1.5;"/>
            </g>
        </g>
        <g transform="matrix(-1.06443,0,0,1.06443,1012.34,76.329)">
            <g transform="matrix(-0.939474,0,0,0.939474,949.427,-20.0381)">
                <path d="M746.499,486.577L704.04,468.388L744.066,445.334C734.364,456.253 735.58,476.874 746.499,486.577Z"/>
                <path d="M857.317,327.884C853.129,409.3 814.14,456.571 737.034,466.442" style="fill:none;stroke:black;stroke-width:6px;stroke-linecap:round;stroke-miterlimit:1.5;"/>
            </g>
        </g>
        <g transform="matrix(1.06443,0,0,1.06443,22.4284,6.07765)">
            <g transform="matrix(1.03704,0,0,1.05772,-10.6667,-26.7889)">
                <path d="M612,351.24C612,329.366 593.887,311.607 571.577,311.607L328.423,311.607C306.113,311.607 288,329.366 288,351.24L288,542.367C288,564.241 306.113,582 328.423,582L571.577,582C593.887,582 612,564.241 612,542.367L612,351.24Z" style="fill:white;stroke:black;stroke-width:3.59px;stroke-linecap:round;stroke-miterlimit:1.5;"/>
            </g>
            <g>
                <g transform="matrix(0.939474,0,0,0.939474,227.22,28.9613)">
                    <text x="219.819px" y="362.52px" style="font-family:'ArialMT', 'Arial', sans-serif;font-size:64px;fill:rgb(24,25,26);">G</text>
                </g>
                <g transform="matrix(0.939474,0,0,0.939474,130.102,203.318)">
                    <text x="212.99px" y="362.52px" style="font-family:'ArialMT', 'Arial', sans-serif;font-size:64px;fill:rgb(24,25,26);">E</text>
                    <text x="255.678px" y="383.832px" style="font-family:'ArialMT', 'Arial', sans-serif;font-size:37.312px;fill:rgb(24,25,26);">1</text>
                </g>
                <g transform="matrix(0.939474,0,0,0.939474,337.493,203.318)">
                    <text x="212.99px" y="362.52px" style="font-family:'ArialMT', 'Arial', sans-serif;font-size:64px;fill:rgb(24,25,26);">E</text>
                    <text x="255.678px" y="383.832px" style="font-family:'ArialMT', 'Arial', sans-serif;font-size:37.312px;fill:rgb(24,25,26);">2</text>
                </g>
                <g>
                    <g>
                        <g transform="matrix(0.776398,0,0,0.776398,65.8137,186.959)">
                            <path d="M432,432L576,432" style="fill:none;stroke:black;stroke-width:3.63px;stroke-linecap:round;stroke-miterlimit:1.5;"/>
                        </g>
                        <g transform="matrix(0.776398,0,0,0.776398,65.8137,186.959)">
                            <path d="M576,432L540,420L546,432L576,432Z" style="stroke:black;stroke-width:3.63px;stroke-linecap:round;stroke-miterlimit:1.5;"/>
                        </g>
                    </g>
                    <g>
                        <g transform="matrix(-0.776398,-9.50813e-17,9.50813e-17,-0.776398,848.422,867.083)">
                            <path d="M432,432L576,432" style="fill:none;stroke:black;stroke-width:3.63px;stroke-linecap:round;stroke-miterlimit:1.5;"/>
                        </g>
                        <g transform="matrix(-0.776398,-9.50813e-17,9.50813e-17,-0.776398,848.422,867.083)">
                            <path d="M576,432L540,420L546,432L576,432Z" style="stroke:black;stroke-width:3.63px;stroke-linecap:round;stroke-miterlimit:1.5;"/>
                        </g>
                    </g>
                </g>
                <g>
                    <g>
                        <g transform="matrix(0.388199,-0.67238,0.67238,0.388199,-80.2445,602.2)">
                            <path d="M432,432L576,432" style="fill:none;stroke:black;stroke-width:3.63px;stroke-linecap:round;stroke-miterlimit:1.5;"/>
                        </g>
                        <g transform="matrix(0.388199,-0.67238,0.67238,0.388199,-80.2445,602.2)">
                            <path d="M576,432L540,420L546,432L576,432Z" style="stroke:black;stroke-width:3.63px;stroke-linecap:round;stroke-miterlimit:1.5;"/>
                        </g>
                    </g>
                    <g>
                        <g transform="matrix(-0.388199,0.67238,-0.67238,-0.388199,900.065,264.503)">
                            <path d="M432,432L576,432" style="fill:none;stroke:black;stroke-width:3.63px;stroke-linecap:round;stroke-miterlimit:1.5;"/>
                        </g>
                        <g transform="matrix(-0.388199,0.67238,-0.67238,-0.388199,900.065,264.503)">
                            <path d="M576,432L540,420L546,432L576,432Z" style="stroke:black;stroke-width:3.63px;stroke-linecap:round;stroke-miterlimit:1.5;"/>
                        </g>
                    </g>
                </g>
                <g>
                    <g>
                        <g transform="matrix(0.388199,0.67238,-0.67238,0.388199,606.586,-76.3281)">
                            <path d="M432,432L576,432" style="fill:none;stroke:black;stroke-width:3.63px;stroke-linecap:round;stroke-miterlimit:1.5;"/>
                        </g>
                        <g transform="matrix(0.388199,0.67238,-0.67238,0.388199,606.586,-76.3281)">
                            <path d="M576,432L540,420L546,432L576,432Z" style="stroke:black;stroke-width:3.63px;stroke-linecap:round;stroke-miterlimit:1.5;"/>
                        </g>
                    </g>
                    <g>
                        <g transform="matrix(-0.388199,-0.67238,0.67238,-0.388199,408.886,941.493)">
                            <path d="M432,432L576,432" style="fill:none;stroke:black;stroke-width:3.63px;stroke-linecap:round;stroke-miterlimit:1.5;"/>
                        </g>
                        <g transform="matrix(-0.388199,-0.67238,0.67238,-0.388199,408.886,941.493)">
                            <path d="M576,432L540,420L546,432L576,432Z" style="stroke:black;stroke-width:3.63px;stroke-linecap:round;stroke-miterlimit:1.5;"/>
                        </g>
                    </g>
                </g>
            </g>
        </g>
    </g>
</svg>
