<?xml version="1.0" encoding="UTF-8" standalone="no"?>
<!DOCTYPE svg PUBLIC "-//W3C//DTD SVG 1.1//EN" "http://www.w3.org/Graphics/SVG/1.1/DTD/svg11.dtd">
<svg width="100%" height="100%" viewBox="0 0 1280 1024" version="1.1" xmlns="http://www.w3.org/2000/svg" xmlns:xlink="http://www.w3.org/1999/xlink" xml:space="preserve" xmlns:serif="http://www.serif.com/" style="fill-rule:evenodd;clip-rule:evenodd;stroke-linejoin:round;stroke-miterlimit:2;" color="#FFFFFF" fill="currentColor" stroke="currentColor">
    <g id="Top" transform="matrix(0.6643,0,0,1.00451,523.93,66.1292)">
        <clipPath id="_clip1">
            <rect x="-276.879" y="-67.823" width="933.314" height="255.842" />
        </clipPath>
        <g clip-path="url(#_clip1)">
            <path d="M-43.839,241.989C-26.754,262.909 6.303,275.947 42.254,275.947L295.002,275.947C330.942,275.947 363.989,262.917 381.079,242.009L533.43,55.618C536.155,52.284 538.432,48.797 540.235,45.199C556.184,13.366 539.973,-21.848 514.24,-40.457C491.869,-56.636 462.965,-64.708 432.01,-64.708C432.01,-64.708 -94.63,-64.708 -94.63,-64.708C-125.585,-64.708 -154.489,-56.636 -176.86,-40.457C-202.594,-21.848 -218.804,13.368 -202.852,45.203C-201.053,48.792 -198.782,52.271 -196.064,55.598L-43.839,241.989ZM42.254,211.239L295.002,211.239L447.353,24.848C453.07,13.437 444.773,0 432.01,0L-94.63,0C-107.393,0 -115.69,13.437 -109.972,24.848L42.254,211.239Z" />
        </g>
    </g>
    <g id="Bottom" transform="matrix(0.731624,0,0,0.944536,844.072,678.045)">
        <clipPath id="_clip2">
            <rect x="-757.318" y="-117.669" width="915.771" height="509.348" />
        </clipPath>
        <g clip-path="url(#_clip2)">
            <path d="M127.214,129.012L126.777,128.08L126.362,127.349L125.912,126.47L125.883,126.504C124.679,124.247 123.271,122.042 121.703,119.885L-93.416,-175.783C-109.162,-197.424 -138.744,-210.813 -170.815,-210.813L-398.118,-210.813C-430.191,-210.813 -459.775,-197.422 -475.52,-175.778L-690.597,119.89C-692.149,122.024 -693.553,124.22 -694.803,126.47C-694.803,126.47 -727.732,187.66 -721.142,242.899C-714.76,296.4 -680.924,345.302 -590.191,362.51C-583.275,363.822 -576.181,364.485 -569.062,364.485L0.17,364.485C7.29,364.485 14.384,363.822 21.299,362.51C112.032,345.302 145.868,296.4 152.251,242.899C158.048,194.305 133.263,141.106 127.214,129.012ZM44.304,153.672L-170.815,-141.996L-398.118,-141.996L-613.195,153.672C-613.195,153.672 -680.356,274.56 -569.062,295.668L0.17,295.668C111.464,274.56 44.304,153.672 44.304,153.672Z" />
        </g>
    </g>
    <g id="CentreBottom" transform="matrix(0.823857,0,0,0.805039,803.419,491.229)">
        <path d="M12.166,-8.731C2.757,-13.388 -3.453,-43.2 -3.453,-53.698L-405.769,-53.698C-405.769,-43.2 -411.979,-13.388 -421.388,-8.731C-436.861,-1.073 -447.465,15.073 -447.01,33.522C-446.393,58.582 -425.103,78.22 -400.037,78.22L-9.186,78.22C15.881,78.22 37.171,58.582 37.788,33.522C38.243,15.073 27.639,-1.073 12.166,-8.731" />
    </g>
    <g id="CentreTop" transform="matrix(0.823857,4.40909e-18,-4.50539e-18,-0.805061,803.418,330.675)">
        <path d="M12.166,-8.726C2.757,-13.383 -3.453,-43.197 -3.453,-53.695L-405.769,-53.695C-405.769,-43.197 -411.979,-13.383 -421.388,-8.726C-436.861,-1.068 -447.465,15.078 -447.01,33.527C-446.393,58.587 -425.103,78.225 -400.037,78.225L-9.186,78.225C15.881,78.225 37.171,58.587 37.788,33.527C38.243,15.078 27.639,-1.068 12.166,-8.726" />
    </g>
    <g transform="matrix(1,0,0,1,322.093,529.975)" stroke-width="0px" >
        <g id="Text" transform="matrix(173,0,0,173,97.252,390.073)">
            <path d="M0.075,-0.716L0.281,-0.716L0.551,-0.32L0.551,-0.716L0.759,-0.716L0.759,-0L0.551,-0L0.283,-0.393L0.283,-0L0.075,-0L0.075,-0.716Z" />
        </g>
        <g transform="matrix(173,0,0,173,237.037,390.073)">
            <path d="M0.071,-0.716L0.362,-0.716L0.474,-0.28L0.586,-0.716L0.876,-0.716L0.876,-0L0.695,-0L0.695,-0.546L0.555,-0L0.392,-0L0.252,-0.546L0.252,-0L0.071,-0L0.071,-0.716Z" />
        </g>
        <g transform="matrix(173,0,0,173,395.998,390.073)">
            <path d="M0.076,-0L0.076,-0.716L0.445,-0.716C0.513,-0.716 0.565,-0.71 0.602,-0.698C0.638,-0.687 0.667,-0.665 0.689,-0.633C0.711,-0.601 0.722,-0.563 0.722,-0.517C0.722,-0.477 0.714,-0.443 0.697,-0.414C0.68,-0.385 0.657,-0.362 0.627,-0.344C0.608,-0.333 0.582,-0.323 0.549,-0.316C0.576,-0.307 0.595,-0.298 0.607,-0.29C0.615,-0.284 0.627,-0.271 0.642,-0.252C0.658,-0.233 0.668,-0.218 0.673,-0.208L0.78,-0L0.53,-0L0.412,-0.219C0.397,-0.247 0.384,-0.265 0.372,-0.274C0.356,-0.285 0.338,-0.291 0.318,-0.291L0.298,-0.291L0.298,-0L0.076,-0ZM0.298,-0.426L0.392,-0.426C0.402,-0.426 0.421,-0.429 0.45,-0.436C0.465,-0.438 0.477,-0.446 0.486,-0.458C0.495,-0.47 0.5,-0.484 0.5,-0.5C0.5,-0.523 0.493,-0.54 0.478,-0.553C0.463,-0.565 0.436,-0.571 0.396,-0.571L0.298,-0.571L0.298,-0.426Z" />
        </g>
    </g>
    <g id="String" transform="matrix(0.941128,0,0,0.929138,408.063,528.731)">
        <path d="M5.733,-79.457C6.456,-79.418 7.17,-79.348 7.903,-79.348C26.554,-79.348 42.197,-92.052 46.764,-109.268C52.027,-112.668 56.051,-115.104 58.36,-116.464L415.156,-116.464C420.868,-116.464 425.499,-121.096 425.499,-126.808C425.499,-132.52 420.868,-137.151 415.156,-137.151L52.914,-137.151L52.724,-137.046C50.854,-136.964 48.012,-136.824 44.345,-136.602C37.931,-150.32 24.047,-159.848 7.903,-159.848C-11.47,-159.848 -27.637,-146.156 -31.474,-127.924C-37.283,-126.936 -43.196,-125.85 -49.167,-124.644C-123.266,-109.674 -166.892,-84.924 -178.836,-51.081C-180.738,-45.694 -177.912,-39.785 -172.525,-37.886C-171.387,-37.482 -170.225,-37.293 -169.083,-37.293C-164.821,-37.293 -160.829,-39.947 -159.331,-44.197C-147.365,-78.097 -86.971,-97.192 -30.367,-107.162C-27.87,-99.473 -23.119,-92.819 -16.897,-87.938C-58.438,-52.645 -106.781,0.721 -123.485,67.538C-124.869,73.078 -121.5,78.694 -115.957,80.081C-115.117,80.291 -114.273,80.391 -113.442,80.391C-108.809,80.391 -104.591,77.255 -103.414,72.553C-86.962,6.746 -35.276,-46.258 5.733,-79.457Z" stroke-width="32px" />
    </g>
</svg>
